G75*
G70*
%OFA0B0*%
%FSLAX24Y24*%
%IPPOS*%
%LPD*%
%AMOC8*
5,1,8,0,0,1.08239X$1,22.5*
%
%ADD10C,0.0000*%
%ADD11C,0.0520*%
%ADD12OC8,0.0520*%
%ADD13R,0.0740X0.0740*%
%ADD14OC8,0.1181*%
%ADD15C,0.0740*%
%ADD16C,0.0650*%
%ADD17C,0.0600*%
%ADD18C,0.0740*%
%ADD19R,0.0650X0.0650*%
%ADD20C,0.0100*%
%ADD21C,0.0080*%
%ADD22C,0.0240*%
D10*
X000100Y000100D02*
X000100Y019785D01*
X035533Y019785D01*
X035533Y000100D01*
X000100Y000100D01*
D11*
X008909Y008970D02*
X008909Y009490D01*
X009909Y009490D02*
X009909Y008970D01*
X010909Y008970D02*
X010909Y009490D01*
X011909Y009490D02*
X011909Y008970D01*
X012909Y008970D02*
X012909Y009490D01*
X013909Y009490D02*
X013909Y008970D01*
X014909Y008970D02*
X014909Y009490D01*
X014909Y011970D02*
X014909Y012490D01*
X013909Y012490D02*
X013909Y011970D01*
X012909Y011970D02*
X012909Y012490D01*
X011909Y012490D02*
X011909Y011970D01*
X010909Y011970D02*
X010909Y012490D01*
X009909Y012490D02*
X009909Y011970D01*
X008909Y011970D02*
X008909Y012490D01*
X023372Y012490D02*
X023372Y011970D01*
X024372Y011970D02*
X024372Y012490D01*
X025372Y012490D02*
X025372Y011970D01*
X026372Y011970D02*
X026372Y012490D01*
X027372Y012490D02*
X027372Y011970D01*
X028372Y011970D02*
X028372Y012490D01*
X029372Y012490D02*
X029372Y011970D01*
X030372Y011970D02*
X030372Y012490D01*
X030372Y009490D02*
X030372Y008970D01*
X029372Y008970D02*
X029372Y009490D01*
X028372Y009490D02*
X028372Y008970D01*
X027372Y008970D02*
X027372Y009490D01*
X026372Y009490D02*
X026372Y008970D01*
X025372Y008970D02*
X025372Y009490D01*
X024372Y009490D02*
X024372Y008970D01*
X023372Y008970D02*
X023372Y009490D01*
D12*
X023722Y007293D03*
X023722Y006293D03*
X023722Y004856D03*
X019785Y004856D03*
X019785Y006293D03*
X019785Y007293D03*
X015848Y007293D03*
X015848Y006293D03*
X015848Y004856D03*
X011911Y004856D03*
X011911Y006293D03*
X011911Y007293D03*
X007974Y007293D03*
X007974Y006293D03*
X007974Y004856D03*
X004037Y004856D03*
X004037Y006293D03*
X004037Y007293D03*
X004037Y000856D03*
X007974Y000856D03*
X011911Y000856D03*
X015848Y000856D03*
X019785Y000856D03*
X023722Y000856D03*
X027659Y000856D03*
X031596Y000856D03*
X031596Y004856D03*
X031596Y006293D03*
X031596Y007293D03*
X027659Y007293D03*
X027659Y006293D03*
X027659Y004856D03*
X028872Y014667D03*
X028872Y016242D03*
X028872Y017817D03*
X024872Y017817D03*
X024872Y016242D03*
X024872Y014667D03*
D13*
X018801Y014470D03*
X017817Y014470D03*
X016832Y014470D03*
X017817Y011961D03*
D14*
X019549Y017226D03*
X016084Y017226D03*
D15*
X019817Y011961D03*
X020817Y011861D03*
X018817Y011861D03*
X032285Y010833D03*
X034845Y010833D03*
X034845Y009053D03*
X032285Y009053D03*
X004234Y015762D03*
X004234Y016832D03*
X004234Y017902D03*
X003349Y010833D03*
X000789Y010833D03*
X000789Y009053D03*
X003349Y009053D03*
D16*
X006793Y010336D03*
X006793Y011336D03*
X006793Y013076D03*
X006793Y014076D03*
X002069Y013592D03*
D17*
X007749Y015832D02*
X008349Y015832D01*
X008349Y016832D02*
X007749Y016832D01*
X007749Y017832D02*
X008349Y017832D01*
D18*
X002045Y017832D02*
X001305Y017832D01*
X001305Y016832D02*
X002045Y016832D01*
D19*
X002069Y012592D03*
D20*
X002069Y012305D01*
X003250Y011124D01*
X003349Y010833D01*
X006793Y010336D02*
X006793Y010336D01*
X007580Y009549D01*
X008761Y009549D01*
X008909Y009230D01*
X011911Y007293D02*
X011911Y007187D01*
X015061Y007187D01*
X016242Y008368D01*
X023722Y008368D01*
X024509Y009155D01*
X024372Y009230D01*
X024116Y008368D02*
X025691Y008368D01*
X026478Y009155D01*
X026372Y009230D01*
X027265Y009155D02*
X027372Y009230D01*
X027265Y009155D02*
X025297Y007187D01*
X023722Y007187D01*
X023722Y007293D01*
X022935Y007187D02*
X024116Y008368D01*
X022935Y007187D02*
X019785Y007187D01*
X019785Y007293D01*
X014667Y010336D02*
X026872Y010336D01*
X028446Y011911D01*
X028372Y012230D01*
X028840Y012698D02*
X029234Y012305D01*
X029372Y012230D01*
X029628Y011911D01*
X032383Y009155D01*
X032285Y009053D01*
X030415Y009155D02*
X030372Y009230D01*
X030415Y009155D02*
X030415Y000887D01*
X031596Y000887D01*
X031596Y000856D01*
X030415Y000887D02*
X027659Y000887D01*
X027659Y000856D01*
X027659Y000887D02*
X023722Y000887D01*
X023722Y000856D01*
X023722Y000887D02*
X019785Y000887D01*
X019785Y000856D01*
X019785Y000887D02*
X015848Y000887D01*
X015848Y000856D01*
X015848Y000887D02*
X011911Y000887D01*
X011911Y000856D01*
X011911Y000887D02*
X007974Y000887D01*
X007974Y000856D01*
X007974Y000887D02*
X004037Y000887D01*
X004037Y000856D01*
X012909Y009230D02*
X013092Y009549D01*
X014273Y010730D01*
X024116Y010730D01*
X025297Y011911D01*
X025372Y012230D01*
X028840Y012698D02*
X028840Y013092D01*
X028840Y014667D01*
X028872Y014667D01*
X014667Y010336D02*
X013880Y009549D01*
X013909Y009230D01*
X004234Y016832D02*
X004037Y017029D01*
X001675Y017029D01*
X001675Y016832D01*
D21*
X004234Y017902D02*
X004431Y017817D01*
X006006Y017817D01*
X007974Y015848D01*
X008049Y015832D01*
X006793Y014273D02*
X006793Y014076D01*
X006793Y013880D01*
X004431Y013880D01*
X006399Y011911D01*
X008761Y011911D01*
X008909Y012230D01*
X006793Y011517D02*
X006793Y011336D01*
X006793Y011517D02*
X006399Y011911D01*
X004431Y013880D02*
X002069Y013880D01*
X002069Y013592D01*
X006793Y014273D02*
X016635Y014273D01*
X016832Y014470D01*
X018604Y012698D01*
X018604Y011911D01*
X018817Y011861D01*
X017817Y011961D02*
X017817Y012305D01*
X017029Y013092D01*
X011911Y013092D01*
X011517Y012698D01*
X011517Y011911D01*
X009155Y009549D01*
X008909Y009230D01*
X009943Y008368D02*
X004431Y008368D01*
X003643Y009155D01*
X003349Y009053D01*
X004037Y006399D02*
X004037Y006293D01*
X004037Y004856D01*
X004037Y004824D01*
X007974Y004824D02*
X007974Y004856D01*
X007974Y006293D01*
X007974Y006399D01*
X009943Y008368D02*
X010336Y008761D01*
X010336Y009549D01*
X011517Y010730D01*
X012698Y010730D01*
X013880Y011911D01*
X013909Y012230D01*
X014667Y011517D02*
X013486Y010336D01*
X011911Y010336D01*
X011124Y009549D01*
X010909Y009230D01*
X011911Y006399D02*
X011911Y006293D01*
X011911Y004856D01*
X011911Y004824D01*
X015848Y004824D02*
X015848Y004856D01*
X015848Y006293D01*
X015848Y006399D01*
X019785Y006399D02*
X019785Y006293D01*
X019785Y004856D01*
X019785Y004824D01*
X023722Y004824D02*
X023722Y004856D01*
X023722Y006293D01*
X023722Y006399D01*
X027659Y006399D02*
X027659Y006293D01*
X027659Y004856D01*
X027659Y004824D01*
X027659Y007187D02*
X027659Y007293D01*
X027659Y008368D01*
X028446Y009155D01*
X028372Y009230D01*
X031596Y006399D02*
X031596Y006293D01*
X031596Y004856D01*
X031596Y004824D01*
X023372Y012230D02*
X023328Y012305D01*
X024116Y013092D01*
X028840Y013092D01*
X028840Y016242D02*
X028872Y016242D01*
X028840Y016242D02*
X028840Y017817D01*
X028872Y017817D01*
X024903Y016242D02*
X024872Y016242D01*
X017029Y016242D01*
X018801Y014470D02*
X018998Y014667D01*
X021360Y012305D01*
X023328Y012305D01*
D22*
X017029Y016242D03*
X014667Y011517D03*
M02*
