G75*
G70*
%OFA0B0*%
%FSLAX24Y24*%
%IPPOS*%
%LPD*%
%AMOC8*
5,1,8,0,0,1.08239X$1,22.5*
%
%ADD10C,0.0560*%
%ADD11OC8,0.0560*%
%ADD12R,0.0780X0.0780*%
%ADD13OC8,0.1221*%
%ADD14C,0.0780*%
%ADD15C,0.0690*%
%ADD16C,0.0640*%
%ADD17C,0.0780*%
%ADD18C,0.0050*%
%ADD19R,0.0690X0.0690*%
D10*
X008909Y008970D02*
X008909Y009490D01*
X009909Y009490D02*
X009909Y008970D01*
X010909Y008970D02*
X010909Y009490D01*
X011909Y009490D02*
X011909Y008970D01*
X012909Y008970D02*
X012909Y009490D01*
X013909Y009490D02*
X013909Y008970D01*
X014909Y008970D02*
X014909Y009490D01*
X014909Y011970D02*
X014909Y012490D01*
X013909Y012490D02*
X013909Y011970D01*
X012909Y011970D02*
X012909Y012490D01*
X011909Y012490D02*
X011909Y011970D01*
X010909Y011970D02*
X010909Y012490D01*
X009909Y012490D02*
X009909Y011970D01*
X008909Y011970D02*
X008909Y012490D01*
X023372Y012490D02*
X023372Y011970D01*
X024372Y011970D02*
X024372Y012490D01*
X025372Y012490D02*
X025372Y011970D01*
X026372Y011970D02*
X026372Y012490D01*
X027372Y012490D02*
X027372Y011970D01*
X028372Y011970D02*
X028372Y012490D01*
X029372Y012490D02*
X029372Y011970D01*
X030372Y011970D02*
X030372Y012490D01*
X030372Y009490D02*
X030372Y008970D01*
X029372Y008970D02*
X029372Y009490D01*
X028372Y009490D02*
X028372Y008970D01*
X027372Y008970D02*
X027372Y009490D01*
X026372Y009490D02*
X026372Y008970D01*
X025372Y008970D02*
X025372Y009490D01*
X024372Y009490D02*
X024372Y008970D01*
X023372Y008970D02*
X023372Y009490D01*
D11*
X004037Y000856D03*
X007974Y000856D03*
X011911Y000856D03*
X015848Y000856D03*
X019785Y000856D03*
X023722Y000856D03*
X027659Y000856D03*
X031596Y000856D03*
X031596Y004856D03*
X031596Y006293D03*
X031596Y007293D03*
X027659Y007293D03*
X027659Y006293D03*
X027659Y004856D03*
X023722Y004856D03*
X023722Y006293D03*
X023722Y007293D03*
X019785Y007293D03*
X019785Y006293D03*
X019785Y004856D03*
X015848Y004856D03*
X015848Y006293D03*
X015848Y007293D03*
X011911Y007293D03*
X011911Y006293D03*
X011911Y004856D03*
X007974Y004856D03*
X007974Y006293D03*
X007974Y007293D03*
X004037Y007293D03*
X004037Y006293D03*
X004037Y004856D03*
X024872Y014667D03*
X024872Y016242D03*
X024872Y017817D03*
X028872Y017817D03*
X028872Y016242D03*
X028872Y014667D03*
D12*
X018801Y014470D03*
X017817Y014470D03*
X016832Y014470D03*
X017817Y011961D03*
D13*
X019549Y017226D03*
X016084Y017226D03*
D14*
X019817Y011961D03*
X020817Y011861D03*
X018817Y011861D03*
X032285Y010833D03*
X034845Y010833D03*
X034845Y009053D03*
X032285Y009053D03*
X003349Y009053D03*
X000789Y009053D03*
X000789Y010833D03*
X003349Y010833D03*
D15*
X006793Y010336D03*
X006793Y011336D03*
X006793Y013076D03*
X006793Y014076D03*
X002069Y013592D03*
D16*
X007749Y015832D02*
X008349Y015832D01*
X008349Y016832D02*
X007749Y016832D01*
X007749Y017832D02*
X008349Y017832D01*
D17*
X002045Y017832D02*
X001305Y017832D01*
X001305Y016832D02*
X002045Y016832D01*
D18*
X004063Y016823D02*
X004066Y016863D01*
X004079Y016902D01*
X004099Y016936D01*
X004127Y016965D01*
X004160Y016988D01*
X004198Y017002D01*
X004238Y017007D01*
X004277Y017002D01*
X004314Y016988D01*
X004348Y016967D01*
X004375Y016938D01*
X004396Y016904D01*
X004408Y016867D01*
X004412Y016827D01*
X004407Y016789D01*
X004394Y016753D01*
X004373Y016720D01*
X004346Y016693D01*
X004313Y016673D01*
X004276Y016660D01*
X004238Y016656D01*
X004200Y016660D01*
X004163Y016671D01*
X004130Y016691D01*
X004103Y016718D01*
X004082Y016749D01*
X004068Y016785D01*
X004063Y016823D01*
X004064Y016833D02*
X004411Y016833D01*
X004403Y016881D02*
X004072Y016881D01*
X004095Y016930D02*
X004380Y016930D01*
X004330Y016978D02*
X004146Y016978D01*
X004069Y016784D02*
X004405Y016784D01*
X004383Y016736D02*
X004091Y016736D01*
X004137Y016687D02*
X004336Y016687D01*
X004235Y015937D02*
X004274Y015932D01*
X004311Y015918D01*
X004345Y015897D01*
X004372Y015868D01*
X004393Y015834D01*
X004405Y015797D01*
X004409Y015757D01*
X004404Y015719D01*
X004391Y015683D01*
X004370Y015650D01*
X004343Y015623D01*
X004310Y015603D01*
X004273Y015590D01*
X004235Y015586D01*
X004197Y015590D01*
X004160Y015601D01*
X004127Y015621D01*
X004100Y015648D01*
X004079Y015680D01*
X004065Y015715D01*
X004060Y015753D01*
X004063Y015793D01*
X004076Y015832D01*
X004096Y015866D01*
X004124Y015895D01*
X004157Y015918D01*
X004195Y015932D01*
X004235Y015937D01*
X004148Y015911D02*
X004323Y015911D01*
X004376Y015863D02*
X004094Y015863D01*
X004070Y015814D02*
X004399Y015814D01*
X004408Y015766D02*
X004061Y015766D01*
X004065Y015717D02*
X004404Y015717D01*
X004382Y015669D02*
X004086Y015669D01*
X004129Y015620D02*
X004338Y015620D01*
X004234Y017728D02*
X004272Y017732D01*
X004309Y017745D01*
X004342Y017765D01*
X004369Y017792D01*
X004390Y017825D01*
X004403Y017861D01*
X004408Y017899D01*
X004404Y017939D01*
X004392Y017976D01*
X004371Y018010D01*
X004344Y018039D01*
X004310Y018060D01*
X004273Y018074D01*
X004234Y018079D01*
X004194Y018074D01*
X004156Y018060D01*
X004123Y018037D01*
X004095Y018008D01*
X004075Y017974D01*
X004062Y017935D01*
X004059Y017895D01*
X004064Y017857D01*
X004078Y017821D01*
X004099Y017790D01*
X004126Y017763D01*
X004159Y017743D01*
X004196Y017732D01*
X004234Y017728D01*
X004324Y017754D02*
X004141Y017754D01*
X004090Y017803D02*
X004376Y017803D01*
X004400Y017851D02*
X004066Y017851D01*
X004059Y017900D02*
X004408Y017900D01*
X004401Y017948D02*
X004066Y017948D01*
X004088Y017997D02*
X004379Y017997D01*
X004334Y018045D02*
X004135Y018045D01*
D19*
X002069Y012592D03*
M02*
