%
M48
M72
T01C0.0120
T02C0.0276
T03C0.0320
T04C0.0394
T05C0.0400
T06C0.0440
T07C0.0787
%
T01
X14667Y11517
X17029Y16242
T02
X6793Y14076
X6793Y13076
X6793Y11336
X6793Y10336
X2069Y12592
X2069Y13592
T03
X4037Y856
X7974Y856
X11911Y856
X15848Y856
X19785Y856
X23722Y856
X27659Y856
X31596Y856
X31596Y4856
X31596Y6293
X31596Y7293
X30372Y9230
X29372Y9230
X28372Y9230
X27372Y9230
X26372Y9230
X25372Y9230
X24372Y9230
X23372Y9230
X23722Y7293
X23722Y6293
X23722Y4856
X19785Y4856
X19785Y6293
X19785Y7293
X15848Y7293
X15848Y6293
X15848Y4856
X11911Y4856
X11911Y6293
X11911Y7293
X11909Y9230
X10909Y9230
X9909Y9230
X8909Y9230
X7974Y7293
X7974Y6293
X7974Y4856
X4037Y4856
X4037Y6293
X4037Y7293
X8909Y12230
X9909Y12230
X10909Y12230
X11909Y12230
X12909Y12230
X13909Y12230
X14909Y12230
X14909Y9230
X13909Y9230
X12909Y9230
X23372Y12230
X24372Y12230
X25372Y12230
X26372Y12230
X27372Y12230
X28372Y12230
X29372Y12230
X30372Y12230
X28872Y14667
X28872Y16242
X28872Y17817
X24872Y17817
X24872Y16242
X24872Y14667
X27659Y7293
X27659Y6293
X27659Y4856
T04
X18801Y14470
X17817Y14470
X16832Y14470
T05
X17817Y11961
X18817Y11861
X19817Y11961
X20817Y11861
X32285Y10833
X34845Y10833
X34845Y9053
X32285Y9053
X8049Y15832
X8049Y16832
X8049Y17832
X4234Y17902
X4234Y16832
X4234Y15762
X3349Y10833
X789Y10833
X789Y9053
X3349Y9053
T06
X1675Y16832
X1675Y17832
T07
X16084Y17226
X19549Y17226
M30
