G75*
G70*
%OFA0B0*%
%FSLAX24Y24*%
%IPPOS*%
%LPD*%
%AMOC8*
5,1,8,0,0,1.08239X$1,22.5*
%
%ADD10C,0.0060*%
%ADD11C,0.0040*%
%ADD12C,0.0050*%
%ADD13C,0.0030*%
%ADD14C,0.0160*%
%ADD15C,0.0080*%
%ADD16C,0.0100*%
%ADD17R,0.0240X0.0340*%
%ADD18R,0.0340X0.0240*%
%ADD19C,0.0020*%
%ADD20R,0.0350X0.0500*%
%ADD21C,0.0120*%
D10*
X003587Y001706D02*
X003587Y001856D01*
X003637Y001906D01*
X003637Y003806D01*
X003587Y003856D01*
X003587Y004006D01*
X003589Y004023D01*
X003593Y004040D01*
X003600Y004056D01*
X003610Y004070D01*
X003623Y004083D01*
X003637Y004093D01*
X003653Y004100D01*
X003670Y004104D01*
X003687Y004106D01*
X004387Y004106D01*
X004404Y004104D01*
X004421Y004100D01*
X004437Y004093D01*
X004451Y004083D01*
X004464Y004070D01*
X004474Y004056D01*
X004481Y004040D01*
X004485Y004023D01*
X004487Y004006D01*
X004487Y003856D01*
X004437Y003806D01*
X004437Y001906D01*
X004487Y001856D01*
X004487Y001706D01*
X004485Y001689D01*
X004481Y001672D01*
X004474Y001656D01*
X004464Y001642D01*
X004451Y001629D01*
X004437Y001619D01*
X004421Y001612D01*
X004404Y001608D01*
X004387Y001606D01*
X003687Y001606D01*
X003670Y001608D01*
X003653Y001612D01*
X003637Y001619D01*
X003623Y001629D01*
X003610Y001642D01*
X003600Y001656D01*
X003593Y001672D01*
X003589Y001689D01*
X003587Y001706D01*
X007524Y001706D02*
X007524Y001856D01*
X007574Y001906D01*
X007574Y003806D01*
X007524Y003856D01*
X007524Y004006D01*
X007526Y004023D01*
X007530Y004040D01*
X007537Y004056D01*
X007547Y004070D01*
X007560Y004083D01*
X007574Y004093D01*
X007590Y004100D01*
X007607Y004104D01*
X007624Y004106D01*
X008324Y004106D01*
X008341Y004104D01*
X008358Y004100D01*
X008374Y004093D01*
X008388Y004083D01*
X008401Y004070D01*
X008411Y004056D01*
X008418Y004040D01*
X008422Y004023D01*
X008424Y004006D01*
X008424Y003856D01*
X008374Y003806D01*
X008374Y001906D01*
X008424Y001856D01*
X008424Y001706D01*
X008422Y001689D01*
X008418Y001672D01*
X008411Y001656D01*
X008401Y001642D01*
X008388Y001629D01*
X008374Y001619D01*
X008358Y001612D01*
X008341Y001608D01*
X008324Y001606D01*
X007624Y001606D01*
X007607Y001608D01*
X007590Y001612D01*
X007574Y001619D01*
X007560Y001629D01*
X007547Y001642D01*
X007537Y001656D01*
X007530Y001672D01*
X007526Y001689D01*
X007524Y001706D01*
X011461Y001706D02*
X011461Y001856D01*
X011511Y001906D01*
X011511Y003806D01*
X011461Y003856D01*
X011461Y004006D01*
X011463Y004023D01*
X011467Y004040D01*
X011474Y004056D01*
X011484Y004070D01*
X011497Y004083D01*
X011511Y004093D01*
X011527Y004100D01*
X011544Y004104D01*
X011561Y004106D01*
X012261Y004106D01*
X012278Y004104D01*
X012295Y004100D01*
X012311Y004093D01*
X012325Y004083D01*
X012338Y004070D01*
X012348Y004056D01*
X012355Y004040D01*
X012359Y004023D01*
X012361Y004006D01*
X012361Y003856D01*
X012311Y003806D01*
X012311Y001906D01*
X012361Y001856D01*
X012361Y001706D01*
X012359Y001689D01*
X012355Y001672D01*
X012348Y001656D01*
X012338Y001642D01*
X012325Y001629D01*
X012311Y001619D01*
X012295Y001612D01*
X012278Y001608D01*
X012261Y001606D01*
X011561Y001606D01*
X011544Y001608D01*
X011527Y001612D01*
X011511Y001619D01*
X011497Y001629D01*
X011484Y001642D01*
X011474Y001656D01*
X011467Y001672D01*
X011463Y001689D01*
X011461Y001706D01*
X015398Y001706D02*
X015398Y001856D01*
X015448Y001906D01*
X015448Y003806D01*
X015398Y003856D01*
X015398Y004006D01*
X015400Y004023D01*
X015404Y004040D01*
X015411Y004056D01*
X015421Y004070D01*
X015434Y004083D01*
X015448Y004093D01*
X015464Y004100D01*
X015481Y004104D01*
X015498Y004106D01*
X016198Y004106D01*
X016215Y004104D01*
X016232Y004100D01*
X016248Y004093D01*
X016262Y004083D01*
X016275Y004070D01*
X016285Y004056D01*
X016292Y004040D01*
X016296Y004023D01*
X016298Y004006D01*
X016298Y003856D01*
X016248Y003806D01*
X016248Y001906D01*
X016298Y001856D01*
X016298Y001706D01*
X016296Y001689D01*
X016292Y001672D01*
X016285Y001656D01*
X016275Y001642D01*
X016262Y001629D01*
X016248Y001619D01*
X016232Y001612D01*
X016215Y001608D01*
X016198Y001606D01*
X015498Y001606D01*
X015481Y001608D01*
X015464Y001612D01*
X015448Y001619D01*
X015434Y001629D01*
X015421Y001642D01*
X015411Y001656D01*
X015404Y001672D01*
X015400Y001689D01*
X015398Y001706D01*
X019335Y001706D02*
X019335Y001856D01*
X019385Y001906D01*
X019385Y003806D01*
X019335Y003856D01*
X019335Y004006D01*
X019337Y004023D01*
X019341Y004040D01*
X019348Y004056D01*
X019358Y004070D01*
X019371Y004083D01*
X019385Y004093D01*
X019401Y004100D01*
X019418Y004104D01*
X019435Y004106D01*
X020135Y004106D01*
X020152Y004104D01*
X020169Y004100D01*
X020185Y004093D01*
X020199Y004083D01*
X020212Y004070D01*
X020222Y004056D01*
X020229Y004040D01*
X020233Y004023D01*
X020235Y004006D01*
X020235Y003856D01*
X020185Y003806D01*
X020185Y001906D01*
X020235Y001856D01*
X020235Y001706D01*
X020233Y001689D01*
X020229Y001672D01*
X020222Y001656D01*
X020212Y001642D01*
X020199Y001629D01*
X020185Y001619D01*
X020169Y001612D01*
X020152Y001608D01*
X020135Y001606D01*
X019435Y001606D01*
X019418Y001608D01*
X019401Y001612D01*
X019385Y001619D01*
X019371Y001629D01*
X019358Y001642D01*
X019348Y001656D01*
X019341Y001672D01*
X019337Y001689D01*
X019335Y001706D01*
X023272Y001706D02*
X023272Y001856D01*
X023322Y001906D01*
X023322Y003806D01*
X023272Y003856D01*
X023272Y004006D01*
X023274Y004023D01*
X023278Y004040D01*
X023285Y004056D01*
X023295Y004070D01*
X023308Y004083D01*
X023322Y004093D01*
X023338Y004100D01*
X023355Y004104D01*
X023372Y004106D01*
X024072Y004106D01*
X024089Y004104D01*
X024106Y004100D01*
X024122Y004093D01*
X024136Y004083D01*
X024149Y004070D01*
X024159Y004056D01*
X024166Y004040D01*
X024170Y004023D01*
X024172Y004006D01*
X024172Y003856D01*
X024122Y003806D01*
X024122Y001906D01*
X024172Y001856D01*
X024172Y001706D01*
X024170Y001689D01*
X024166Y001672D01*
X024159Y001656D01*
X024149Y001642D01*
X024136Y001629D01*
X024122Y001619D01*
X024106Y001612D01*
X024089Y001608D01*
X024072Y001606D01*
X023372Y001606D01*
X023355Y001608D01*
X023338Y001612D01*
X023322Y001619D01*
X023308Y001629D01*
X023295Y001642D01*
X023285Y001656D01*
X023278Y001672D01*
X023274Y001689D01*
X023272Y001706D01*
X027209Y001706D02*
X027209Y001856D01*
X027259Y001906D01*
X027259Y003806D01*
X027209Y003856D01*
X027209Y004006D01*
X027211Y004023D01*
X027215Y004040D01*
X027222Y004056D01*
X027232Y004070D01*
X027245Y004083D01*
X027259Y004093D01*
X027275Y004100D01*
X027292Y004104D01*
X027309Y004106D01*
X028009Y004106D01*
X028026Y004104D01*
X028043Y004100D01*
X028059Y004093D01*
X028073Y004083D01*
X028086Y004070D01*
X028096Y004056D01*
X028103Y004040D01*
X028107Y004023D01*
X028109Y004006D01*
X028109Y003856D01*
X028059Y003806D01*
X028059Y001906D01*
X028109Y001856D01*
X028109Y001706D01*
X028107Y001689D01*
X028103Y001672D01*
X028096Y001656D01*
X028086Y001642D01*
X028073Y001629D01*
X028059Y001619D01*
X028043Y001612D01*
X028026Y001608D01*
X028009Y001606D01*
X027309Y001606D01*
X027292Y001608D01*
X027275Y001612D01*
X027259Y001619D01*
X027245Y001629D01*
X027232Y001642D01*
X027222Y001656D01*
X027215Y001672D01*
X027211Y001689D01*
X027209Y001706D01*
X031146Y001706D02*
X031146Y001856D01*
X031196Y001906D01*
X031196Y003806D01*
X031146Y003856D01*
X031146Y004006D01*
X031148Y004023D01*
X031152Y004040D01*
X031159Y004056D01*
X031169Y004070D01*
X031182Y004083D01*
X031196Y004093D01*
X031212Y004100D01*
X031229Y004104D01*
X031246Y004106D01*
X031946Y004106D01*
X031963Y004104D01*
X031980Y004100D01*
X031996Y004093D01*
X032010Y004083D01*
X032023Y004070D01*
X032033Y004056D01*
X032040Y004040D01*
X032044Y004023D01*
X032046Y004006D01*
X032046Y003856D01*
X031996Y003806D01*
X031996Y001906D01*
X032046Y001856D01*
X032046Y001706D01*
X032044Y001689D01*
X032040Y001672D01*
X032033Y001656D01*
X032023Y001642D01*
X032010Y001629D01*
X031996Y001619D01*
X031980Y001612D01*
X031963Y001608D01*
X031946Y001606D01*
X031246Y001606D01*
X031229Y001608D01*
X031212Y001612D01*
X031196Y001619D01*
X031182Y001629D01*
X031169Y001642D01*
X031159Y001656D01*
X031152Y001672D01*
X031148Y001689D01*
X031146Y001706D01*
X030596Y006793D02*
X030598Y006856D01*
X030604Y006918D01*
X030614Y006980D01*
X030627Y007042D01*
X030645Y007102D01*
X030666Y007161D01*
X030691Y007219D01*
X030720Y007275D01*
X030752Y007329D01*
X030787Y007381D01*
X030825Y007430D01*
X030867Y007478D01*
X030911Y007522D01*
X030959Y007564D01*
X031008Y007602D01*
X031060Y007637D01*
X031114Y007669D01*
X031170Y007698D01*
X031228Y007723D01*
X031287Y007744D01*
X031347Y007762D01*
X031409Y007775D01*
X031471Y007785D01*
X031533Y007791D01*
X031596Y007793D01*
X031659Y007791D01*
X031721Y007785D01*
X031783Y007775D01*
X031845Y007762D01*
X031905Y007744D01*
X031964Y007723D01*
X032022Y007698D01*
X032078Y007669D01*
X032132Y007637D01*
X032184Y007602D01*
X032233Y007564D01*
X032281Y007522D01*
X032325Y007478D01*
X032367Y007430D01*
X032405Y007381D01*
X032440Y007329D01*
X032472Y007275D01*
X032501Y007219D01*
X032526Y007161D01*
X032547Y007102D01*
X032565Y007042D01*
X032578Y006980D01*
X032588Y006918D01*
X032594Y006856D01*
X032596Y006793D01*
X032594Y006730D01*
X032588Y006668D01*
X032578Y006606D01*
X032565Y006544D01*
X032547Y006484D01*
X032526Y006425D01*
X032501Y006367D01*
X032472Y006311D01*
X032440Y006257D01*
X032405Y006205D01*
X032367Y006156D01*
X032325Y006108D01*
X032281Y006064D01*
X032233Y006022D01*
X032184Y005984D01*
X032132Y005949D01*
X032078Y005917D01*
X032022Y005888D01*
X031964Y005863D01*
X031905Y005842D01*
X031845Y005824D01*
X031783Y005811D01*
X031721Y005801D01*
X031659Y005795D01*
X031596Y005793D01*
X031533Y005795D01*
X031471Y005801D01*
X031409Y005811D01*
X031347Y005824D01*
X031287Y005842D01*
X031228Y005863D01*
X031170Y005888D01*
X031114Y005917D01*
X031060Y005949D01*
X031008Y005984D01*
X030959Y006022D01*
X030911Y006064D01*
X030867Y006108D01*
X030825Y006156D01*
X030787Y006205D01*
X030752Y006257D01*
X030720Y006311D01*
X030691Y006367D01*
X030666Y006425D01*
X030645Y006484D01*
X030627Y006544D01*
X030614Y006606D01*
X030604Y006668D01*
X030598Y006730D01*
X030596Y006793D01*
X026659Y006793D02*
X026661Y006856D01*
X026667Y006918D01*
X026677Y006980D01*
X026690Y007042D01*
X026708Y007102D01*
X026729Y007161D01*
X026754Y007219D01*
X026783Y007275D01*
X026815Y007329D01*
X026850Y007381D01*
X026888Y007430D01*
X026930Y007478D01*
X026974Y007522D01*
X027022Y007564D01*
X027071Y007602D01*
X027123Y007637D01*
X027177Y007669D01*
X027233Y007698D01*
X027291Y007723D01*
X027350Y007744D01*
X027410Y007762D01*
X027472Y007775D01*
X027534Y007785D01*
X027596Y007791D01*
X027659Y007793D01*
X027722Y007791D01*
X027784Y007785D01*
X027846Y007775D01*
X027908Y007762D01*
X027968Y007744D01*
X028027Y007723D01*
X028085Y007698D01*
X028141Y007669D01*
X028195Y007637D01*
X028247Y007602D01*
X028296Y007564D01*
X028344Y007522D01*
X028388Y007478D01*
X028430Y007430D01*
X028468Y007381D01*
X028503Y007329D01*
X028535Y007275D01*
X028564Y007219D01*
X028589Y007161D01*
X028610Y007102D01*
X028628Y007042D01*
X028641Y006980D01*
X028651Y006918D01*
X028657Y006856D01*
X028659Y006793D01*
X028657Y006730D01*
X028651Y006668D01*
X028641Y006606D01*
X028628Y006544D01*
X028610Y006484D01*
X028589Y006425D01*
X028564Y006367D01*
X028535Y006311D01*
X028503Y006257D01*
X028468Y006205D01*
X028430Y006156D01*
X028388Y006108D01*
X028344Y006064D01*
X028296Y006022D01*
X028247Y005984D01*
X028195Y005949D01*
X028141Y005917D01*
X028085Y005888D01*
X028027Y005863D01*
X027968Y005842D01*
X027908Y005824D01*
X027846Y005811D01*
X027784Y005801D01*
X027722Y005795D01*
X027659Y005793D01*
X027596Y005795D01*
X027534Y005801D01*
X027472Y005811D01*
X027410Y005824D01*
X027350Y005842D01*
X027291Y005863D01*
X027233Y005888D01*
X027177Y005917D01*
X027123Y005949D01*
X027071Y005984D01*
X027022Y006022D01*
X026974Y006064D01*
X026930Y006108D01*
X026888Y006156D01*
X026850Y006205D01*
X026815Y006257D01*
X026783Y006311D01*
X026754Y006367D01*
X026729Y006425D01*
X026708Y006484D01*
X026690Y006544D01*
X026677Y006606D01*
X026667Y006668D01*
X026661Y006730D01*
X026659Y006793D01*
X022722Y006793D02*
X022724Y006856D01*
X022730Y006918D01*
X022740Y006980D01*
X022753Y007042D01*
X022771Y007102D01*
X022792Y007161D01*
X022817Y007219D01*
X022846Y007275D01*
X022878Y007329D01*
X022913Y007381D01*
X022951Y007430D01*
X022993Y007478D01*
X023037Y007522D01*
X023085Y007564D01*
X023134Y007602D01*
X023186Y007637D01*
X023240Y007669D01*
X023296Y007698D01*
X023354Y007723D01*
X023413Y007744D01*
X023473Y007762D01*
X023535Y007775D01*
X023597Y007785D01*
X023659Y007791D01*
X023722Y007793D01*
X023785Y007791D01*
X023847Y007785D01*
X023909Y007775D01*
X023971Y007762D01*
X024031Y007744D01*
X024090Y007723D01*
X024148Y007698D01*
X024204Y007669D01*
X024258Y007637D01*
X024310Y007602D01*
X024359Y007564D01*
X024407Y007522D01*
X024451Y007478D01*
X024493Y007430D01*
X024531Y007381D01*
X024566Y007329D01*
X024598Y007275D01*
X024627Y007219D01*
X024652Y007161D01*
X024673Y007102D01*
X024691Y007042D01*
X024704Y006980D01*
X024714Y006918D01*
X024720Y006856D01*
X024722Y006793D01*
X024720Y006730D01*
X024714Y006668D01*
X024704Y006606D01*
X024691Y006544D01*
X024673Y006484D01*
X024652Y006425D01*
X024627Y006367D01*
X024598Y006311D01*
X024566Y006257D01*
X024531Y006205D01*
X024493Y006156D01*
X024451Y006108D01*
X024407Y006064D01*
X024359Y006022D01*
X024310Y005984D01*
X024258Y005949D01*
X024204Y005917D01*
X024148Y005888D01*
X024090Y005863D01*
X024031Y005842D01*
X023971Y005824D01*
X023909Y005811D01*
X023847Y005801D01*
X023785Y005795D01*
X023722Y005793D01*
X023659Y005795D01*
X023597Y005801D01*
X023535Y005811D01*
X023473Y005824D01*
X023413Y005842D01*
X023354Y005863D01*
X023296Y005888D01*
X023240Y005917D01*
X023186Y005949D01*
X023134Y005984D01*
X023085Y006022D01*
X023037Y006064D01*
X022993Y006108D01*
X022951Y006156D01*
X022913Y006205D01*
X022878Y006257D01*
X022846Y006311D01*
X022817Y006367D01*
X022792Y006425D01*
X022771Y006484D01*
X022753Y006544D01*
X022740Y006606D01*
X022730Y006668D01*
X022724Y006730D01*
X022722Y006793D01*
X018785Y006793D02*
X018787Y006856D01*
X018793Y006918D01*
X018803Y006980D01*
X018816Y007042D01*
X018834Y007102D01*
X018855Y007161D01*
X018880Y007219D01*
X018909Y007275D01*
X018941Y007329D01*
X018976Y007381D01*
X019014Y007430D01*
X019056Y007478D01*
X019100Y007522D01*
X019148Y007564D01*
X019197Y007602D01*
X019249Y007637D01*
X019303Y007669D01*
X019359Y007698D01*
X019417Y007723D01*
X019476Y007744D01*
X019536Y007762D01*
X019598Y007775D01*
X019660Y007785D01*
X019722Y007791D01*
X019785Y007793D01*
X019848Y007791D01*
X019910Y007785D01*
X019972Y007775D01*
X020034Y007762D01*
X020094Y007744D01*
X020153Y007723D01*
X020211Y007698D01*
X020267Y007669D01*
X020321Y007637D01*
X020373Y007602D01*
X020422Y007564D01*
X020470Y007522D01*
X020514Y007478D01*
X020556Y007430D01*
X020594Y007381D01*
X020629Y007329D01*
X020661Y007275D01*
X020690Y007219D01*
X020715Y007161D01*
X020736Y007102D01*
X020754Y007042D01*
X020767Y006980D01*
X020777Y006918D01*
X020783Y006856D01*
X020785Y006793D01*
X020783Y006730D01*
X020777Y006668D01*
X020767Y006606D01*
X020754Y006544D01*
X020736Y006484D01*
X020715Y006425D01*
X020690Y006367D01*
X020661Y006311D01*
X020629Y006257D01*
X020594Y006205D01*
X020556Y006156D01*
X020514Y006108D01*
X020470Y006064D01*
X020422Y006022D01*
X020373Y005984D01*
X020321Y005949D01*
X020267Y005917D01*
X020211Y005888D01*
X020153Y005863D01*
X020094Y005842D01*
X020034Y005824D01*
X019972Y005811D01*
X019910Y005801D01*
X019848Y005795D01*
X019785Y005793D01*
X019722Y005795D01*
X019660Y005801D01*
X019598Y005811D01*
X019536Y005824D01*
X019476Y005842D01*
X019417Y005863D01*
X019359Y005888D01*
X019303Y005917D01*
X019249Y005949D01*
X019197Y005984D01*
X019148Y006022D01*
X019100Y006064D01*
X019056Y006108D01*
X019014Y006156D01*
X018976Y006205D01*
X018941Y006257D01*
X018909Y006311D01*
X018880Y006367D01*
X018855Y006425D01*
X018834Y006484D01*
X018816Y006544D01*
X018803Y006606D01*
X018793Y006668D01*
X018787Y006730D01*
X018785Y006793D01*
X014848Y006793D02*
X014850Y006856D01*
X014856Y006918D01*
X014866Y006980D01*
X014879Y007042D01*
X014897Y007102D01*
X014918Y007161D01*
X014943Y007219D01*
X014972Y007275D01*
X015004Y007329D01*
X015039Y007381D01*
X015077Y007430D01*
X015119Y007478D01*
X015163Y007522D01*
X015211Y007564D01*
X015260Y007602D01*
X015312Y007637D01*
X015366Y007669D01*
X015422Y007698D01*
X015480Y007723D01*
X015539Y007744D01*
X015599Y007762D01*
X015661Y007775D01*
X015723Y007785D01*
X015785Y007791D01*
X015848Y007793D01*
X015911Y007791D01*
X015973Y007785D01*
X016035Y007775D01*
X016097Y007762D01*
X016157Y007744D01*
X016216Y007723D01*
X016274Y007698D01*
X016330Y007669D01*
X016384Y007637D01*
X016436Y007602D01*
X016485Y007564D01*
X016533Y007522D01*
X016577Y007478D01*
X016619Y007430D01*
X016657Y007381D01*
X016692Y007329D01*
X016724Y007275D01*
X016753Y007219D01*
X016778Y007161D01*
X016799Y007102D01*
X016817Y007042D01*
X016830Y006980D01*
X016840Y006918D01*
X016846Y006856D01*
X016848Y006793D01*
X016846Y006730D01*
X016840Y006668D01*
X016830Y006606D01*
X016817Y006544D01*
X016799Y006484D01*
X016778Y006425D01*
X016753Y006367D01*
X016724Y006311D01*
X016692Y006257D01*
X016657Y006205D01*
X016619Y006156D01*
X016577Y006108D01*
X016533Y006064D01*
X016485Y006022D01*
X016436Y005984D01*
X016384Y005949D01*
X016330Y005917D01*
X016274Y005888D01*
X016216Y005863D01*
X016157Y005842D01*
X016097Y005824D01*
X016035Y005811D01*
X015973Y005801D01*
X015911Y005795D01*
X015848Y005793D01*
X015785Y005795D01*
X015723Y005801D01*
X015661Y005811D01*
X015599Y005824D01*
X015539Y005842D01*
X015480Y005863D01*
X015422Y005888D01*
X015366Y005917D01*
X015312Y005949D01*
X015260Y005984D01*
X015211Y006022D01*
X015163Y006064D01*
X015119Y006108D01*
X015077Y006156D01*
X015039Y006205D01*
X015004Y006257D01*
X014972Y006311D01*
X014943Y006367D01*
X014918Y006425D01*
X014897Y006484D01*
X014879Y006544D01*
X014866Y006606D01*
X014856Y006668D01*
X014850Y006730D01*
X014848Y006793D01*
X010911Y006793D02*
X010913Y006856D01*
X010919Y006918D01*
X010929Y006980D01*
X010942Y007042D01*
X010960Y007102D01*
X010981Y007161D01*
X011006Y007219D01*
X011035Y007275D01*
X011067Y007329D01*
X011102Y007381D01*
X011140Y007430D01*
X011182Y007478D01*
X011226Y007522D01*
X011274Y007564D01*
X011323Y007602D01*
X011375Y007637D01*
X011429Y007669D01*
X011485Y007698D01*
X011543Y007723D01*
X011602Y007744D01*
X011662Y007762D01*
X011724Y007775D01*
X011786Y007785D01*
X011848Y007791D01*
X011911Y007793D01*
X011974Y007791D01*
X012036Y007785D01*
X012098Y007775D01*
X012160Y007762D01*
X012220Y007744D01*
X012279Y007723D01*
X012337Y007698D01*
X012393Y007669D01*
X012447Y007637D01*
X012499Y007602D01*
X012548Y007564D01*
X012596Y007522D01*
X012640Y007478D01*
X012682Y007430D01*
X012720Y007381D01*
X012755Y007329D01*
X012787Y007275D01*
X012816Y007219D01*
X012841Y007161D01*
X012862Y007102D01*
X012880Y007042D01*
X012893Y006980D01*
X012903Y006918D01*
X012909Y006856D01*
X012911Y006793D01*
X012909Y006730D01*
X012903Y006668D01*
X012893Y006606D01*
X012880Y006544D01*
X012862Y006484D01*
X012841Y006425D01*
X012816Y006367D01*
X012787Y006311D01*
X012755Y006257D01*
X012720Y006205D01*
X012682Y006156D01*
X012640Y006108D01*
X012596Y006064D01*
X012548Y006022D01*
X012499Y005984D01*
X012447Y005949D01*
X012393Y005917D01*
X012337Y005888D01*
X012279Y005863D01*
X012220Y005842D01*
X012160Y005824D01*
X012098Y005811D01*
X012036Y005801D01*
X011974Y005795D01*
X011911Y005793D01*
X011848Y005795D01*
X011786Y005801D01*
X011724Y005811D01*
X011662Y005824D01*
X011602Y005842D01*
X011543Y005863D01*
X011485Y005888D01*
X011429Y005917D01*
X011375Y005949D01*
X011323Y005984D01*
X011274Y006022D01*
X011226Y006064D01*
X011182Y006108D01*
X011140Y006156D01*
X011102Y006205D01*
X011067Y006257D01*
X011035Y006311D01*
X011006Y006367D01*
X010981Y006425D01*
X010960Y006484D01*
X010942Y006544D01*
X010929Y006606D01*
X010919Y006668D01*
X010913Y006730D01*
X010911Y006793D01*
X006974Y006793D02*
X006976Y006856D01*
X006982Y006918D01*
X006992Y006980D01*
X007005Y007042D01*
X007023Y007102D01*
X007044Y007161D01*
X007069Y007219D01*
X007098Y007275D01*
X007130Y007329D01*
X007165Y007381D01*
X007203Y007430D01*
X007245Y007478D01*
X007289Y007522D01*
X007337Y007564D01*
X007386Y007602D01*
X007438Y007637D01*
X007492Y007669D01*
X007548Y007698D01*
X007606Y007723D01*
X007665Y007744D01*
X007725Y007762D01*
X007787Y007775D01*
X007849Y007785D01*
X007911Y007791D01*
X007974Y007793D01*
X008037Y007791D01*
X008099Y007785D01*
X008161Y007775D01*
X008223Y007762D01*
X008283Y007744D01*
X008342Y007723D01*
X008400Y007698D01*
X008456Y007669D01*
X008510Y007637D01*
X008562Y007602D01*
X008611Y007564D01*
X008659Y007522D01*
X008703Y007478D01*
X008745Y007430D01*
X008783Y007381D01*
X008818Y007329D01*
X008850Y007275D01*
X008879Y007219D01*
X008904Y007161D01*
X008925Y007102D01*
X008943Y007042D01*
X008956Y006980D01*
X008966Y006918D01*
X008972Y006856D01*
X008974Y006793D01*
X008972Y006730D01*
X008966Y006668D01*
X008956Y006606D01*
X008943Y006544D01*
X008925Y006484D01*
X008904Y006425D01*
X008879Y006367D01*
X008850Y006311D01*
X008818Y006257D01*
X008783Y006205D01*
X008745Y006156D01*
X008703Y006108D01*
X008659Y006064D01*
X008611Y006022D01*
X008562Y005984D01*
X008510Y005949D01*
X008456Y005917D01*
X008400Y005888D01*
X008342Y005863D01*
X008283Y005842D01*
X008223Y005824D01*
X008161Y005811D01*
X008099Y005801D01*
X008037Y005795D01*
X007974Y005793D01*
X007911Y005795D01*
X007849Y005801D01*
X007787Y005811D01*
X007725Y005824D01*
X007665Y005842D01*
X007606Y005863D01*
X007548Y005888D01*
X007492Y005917D01*
X007438Y005949D01*
X007386Y005984D01*
X007337Y006022D01*
X007289Y006064D01*
X007245Y006108D01*
X007203Y006156D01*
X007165Y006205D01*
X007130Y006257D01*
X007098Y006311D01*
X007069Y006367D01*
X007044Y006425D01*
X007023Y006484D01*
X007005Y006544D01*
X006992Y006606D01*
X006982Y006668D01*
X006976Y006730D01*
X006974Y006793D01*
X003037Y006793D02*
X003039Y006856D01*
X003045Y006918D01*
X003055Y006980D01*
X003068Y007042D01*
X003086Y007102D01*
X003107Y007161D01*
X003132Y007219D01*
X003161Y007275D01*
X003193Y007329D01*
X003228Y007381D01*
X003266Y007430D01*
X003308Y007478D01*
X003352Y007522D01*
X003400Y007564D01*
X003449Y007602D01*
X003501Y007637D01*
X003555Y007669D01*
X003611Y007698D01*
X003669Y007723D01*
X003728Y007744D01*
X003788Y007762D01*
X003850Y007775D01*
X003912Y007785D01*
X003974Y007791D01*
X004037Y007793D01*
X004100Y007791D01*
X004162Y007785D01*
X004224Y007775D01*
X004286Y007762D01*
X004346Y007744D01*
X004405Y007723D01*
X004463Y007698D01*
X004519Y007669D01*
X004573Y007637D01*
X004625Y007602D01*
X004674Y007564D01*
X004722Y007522D01*
X004766Y007478D01*
X004808Y007430D01*
X004846Y007381D01*
X004881Y007329D01*
X004913Y007275D01*
X004942Y007219D01*
X004967Y007161D01*
X004988Y007102D01*
X005006Y007042D01*
X005019Y006980D01*
X005029Y006918D01*
X005035Y006856D01*
X005037Y006793D01*
X005035Y006730D01*
X005029Y006668D01*
X005019Y006606D01*
X005006Y006544D01*
X004988Y006484D01*
X004967Y006425D01*
X004942Y006367D01*
X004913Y006311D01*
X004881Y006257D01*
X004846Y006205D01*
X004808Y006156D01*
X004766Y006108D01*
X004722Y006064D01*
X004674Y006022D01*
X004625Y005984D01*
X004573Y005949D01*
X004519Y005917D01*
X004463Y005888D01*
X004405Y005863D01*
X004346Y005842D01*
X004286Y005824D01*
X004224Y005811D01*
X004162Y005801D01*
X004100Y005795D01*
X004037Y005793D01*
X003974Y005795D01*
X003912Y005801D01*
X003850Y005811D01*
X003788Y005824D01*
X003728Y005842D01*
X003669Y005863D01*
X003611Y005888D01*
X003555Y005917D01*
X003501Y005949D01*
X003449Y005984D01*
X003400Y006022D01*
X003352Y006064D01*
X003308Y006108D01*
X003266Y006156D01*
X003228Y006205D01*
X003193Y006257D01*
X003161Y006311D01*
X003132Y006367D01*
X003107Y006425D01*
X003086Y006484D01*
X003068Y006544D01*
X003055Y006606D01*
X003045Y006668D01*
X003039Y006730D01*
X003037Y006793D01*
X008409Y009580D02*
X008409Y010330D01*
X008448Y010332D01*
X008487Y010338D01*
X008525Y010347D01*
X008562Y010360D01*
X008598Y010377D01*
X008631Y010397D01*
X008663Y010421D01*
X008692Y010447D01*
X008718Y010476D01*
X008742Y010508D01*
X008762Y010541D01*
X008779Y010577D01*
X008792Y010614D01*
X008801Y010652D01*
X008807Y010691D01*
X008809Y010730D01*
X008807Y010769D01*
X008801Y010808D01*
X008792Y010846D01*
X008779Y010883D01*
X008762Y010919D01*
X008742Y010952D01*
X008718Y010984D01*
X008692Y011013D01*
X008663Y011039D01*
X008631Y011063D01*
X008598Y011083D01*
X008562Y011100D01*
X008525Y011113D01*
X008487Y011122D01*
X008448Y011128D01*
X008409Y011130D01*
X008409Y011880D01*
X015409Y011880D01*
X015409Y009580D01*
X008409Y009580D01*
X009049Y014782D02*
X013949Y014782D01*
X013949Y015132D01*
X014549Y015132D01*
X014549Y014782D01*
X015299Y014782D01*
X015299Y018882D01*
X014549Y018882D01*
X014549Y018532D01*
X013949Y018532D01*
X013949Y018882D01*
X009049Y018882D01*
X009049Y014782D01*
X006948Y015805D02*
X006734Y015805D01*
X006734Y016125D02*
X006734Y015484D01*
X006303Y015805D02*
X006090Y015805D01*
X005872Y016018D02*
X005872Y015591D01*
X005765Y015484D01*
X005552Y015484D01*
X005445Y015591D01*
X005445Y016018D01*
X005552Y016125D01*
X005765Y016125D01*
X005872Y016018D01*
X006090Y016125D02*
X006517Y016125D01*
X006734Y016125D02*
X007161Y016125D01*
X006090Y016125D02*
X006090Y015484D01*
X006090Y017453D02*
X006090Y018093D01*
X006517Y017453D01*
X006517Y018093D01*
X005872Y017987D02*
X005872Y017560D01*
X005765Y017453D01*
X005552Y017453D01*
X005445Y017560D01*
X005445Y017987D01*
X005552Y018093D01*
X005765Y018093D01*
X005872Y017987D01*
X002634Y016125D02*
X002634Y015698D01*
X002420Y015484D01*
X002207Y015698D01*
X002207Y016125D01*
X001989Y016018D02*
X001882Y016125D01*
X001669Y016125D01*
X001562Y016018D01*
X001562Y015911D01*
X001669Y015805D01*
X001989Y015805D01*
X001989Y016018D02*
X001989Y015591D01*
X001882Y015484D01*
X001669Y015484D01*
X001562Y015591D01*
X001344Y015805D02*
X000917Y015805D01*
X001131Y016018D02*
X001131Y015591D01*
X001540Y018689D02*
X001967Y018689D01*
X013239Y016832D02*
X013241Y016885D01*
X013247Y016938D01*
X013257Y016990D01*
X013271Y017041D01*
X013288Y017091D01*
X013309Y017140D01*
X013334Y017187D01*
X013362Y017232D01*
X013394Y017275D01*
X013429Y017315D01*
X013466Y017352D01*
X013506Y017387D01*
X013549Y017419D01*
X013594Y017447D01*
X013641Y017472D01*
X013690Y017493D01*
X013740Y017510D01*
X013791Y017524D01*
X013843Y017534D01*
X013896Y017540D01*
X013949Y017542D01*
X014002Y017540D01*
X014055Y017534D01*
X014107Y017524D01*
X014158Y017510D01*
X014208Y017493D01*
X014257Y017472D01*
X014304Y017447D01*
X014349Y017419D01*
X014392Y017387D01*
X014432Y017352D01*
X014469Y017315D01*
X014504Y017275D01*
X014536Y017232D01*
X014564Y017187D01*
X014589Y017140D01*
X014610Y017091D01*
X014627Y017041D01*
X014641Y016990D01*
X014651Y016938D01*
X014657Y016885D01*
X014659Y016832D01*
X014657Y016779D01*
X014651Y016726D01*
X014641Y016674D01*
X014627Y016623D01*
X014610Y016573D01*
X014589Y016524D01*
X014564Y016477D01*
X014536Y016432D01*
X014504Y016389D01*
X014469Y016349D01*
X014432Y016312D01*
X014392Y016277D01*
X014349Y016245D01*
X014304Y016217D01*
X014257Y016192D01*
X014208Y016171D01*
X014158Y016154D01*
X014107Y016140D01*
X014055Y016130D01*
X014002Y016124D01*
X013949Y016122D01*
X013896Y016124D01*
X013843Y016130D01*
X013791Y016140D01*
X013740Y016154D01*
X013690Y016171D01*
X013641Y016192D01*
X013594Y016217D01*
X013549Y016245D01*
X013506Y016277D01*
X013466Y016312D01*
X013429Y016349D01*
X013394Y016389D01*
X013362Y016432D01*
X013334Y016477D01*
X013309Y016524D01*
X013288Y016573D01*
X013271Y016623D01*
X013257Y016674D01*
X013247Y016726D01*
X013241Y016779D01*
X013239Y016832D01*
X016880Y016906D02*
X016880Y017547D01*
X017200Y017547D01*
X017307Y017440D01*
X017307Y017226D01*
X017200Y017119D01*
X016880Y017119D01*
X017524Y017013D02*
X017631Y016906D01*
X017845Y016906D01*
X017951Y017013D01*
X017951Y017440D01*
X017845Y017547D01*
X017631Y017547D01*
X017524Y017440D01*
X017524Y017013D01*
X018382Y016906D02*
X018382Y017547D01*
X018169Y017547D02*
X018596Y017547D01*
X025622Y017467D02*
X025622Y018167D01*
X025624Y018184D01*
X025628Y018201D01*
X025635Y018217D01*
X025645Y018231D01*
X025658Y018244D01*
X025672Y018254D01*
X025688Y018261D01*
X025705Y018265D01*
X025722Y018267D01*
X025872Y018267D01*
X025922Y018217D01*
X027822Y018217D01*
X027872Y018267D01*
X028022Y018267D01*
X028039Y018265D01*
X028056Y018261D01*
X028072Y018254D01*
X028086Y018244D01*
X028099Y018231D01*
X028109Y018217D01*
X028116Y018201D01*
X028120Y018184D01*
X028122Y018167D01*
X028122Y017467D01*
X028120Y017450D01*
X028116Y017433D01*
X028109Y017417D01*
X028099Y017403D01*
X028086Y017390D01*
X028072Y017380D01*
X028056Y017373D01*
X028039Y017369D01*
X028022Y017367D01*
X027872Y017367D01*
X027822Y017417D01*
X025922Y017417D01*
X025872Y017367D01*
X025722Y017367D01*
X025705Y017369D01*
X025688Y017373D01*
X025672Y017380D01*
X025658Y017390D01*
X025645Y017403D01*
X025635Y017417D01*
X025628Y017433D01*
X025624Y017450D01*
X025622Y017467D01*
X025722Y016692D02*
X025872Y016692D01*
X025922Y016642D01*
X027822Y016642D01*
X027872Y016692D01*
X028022Y016692D01*
X028039Y016690D01*
X028056Y016686D01*
X028072Y016679D01*
X028086Y016669D01*
X028099Y016656D01*
X028109Y016642D01*
X028116Y016626D01*
X028120Y016609D01*
X028122Y016592D01*
X028122Y015892D01*
X028120Y015875D01*
X028116Y015858D01*
X028109Y015842D01*
X028099Y015828D01*
X028086Y015815D01*
X028072Y015805D01*
X028056Y015798D01*
X028039Y015794D01*
X028022Y015792D01*
X027872Y015792D01*
X027822Y015842D01*
X025922Y015842D01*
X025872Y015792D01*
X025722Y015792D01*
X025705Y015794D01*
X025688Y015798D01*
X025672Y015805D01*
X025658Y015815D01*
X025645Y015828D01*
X025635Y015842D01*
X025628Y015858D01*
X025624Y015875D01*
X025622Y015892D01*
X025622Y016592D01*
X025624Y016609D01*
X025628Y016626D01*
X025635Y016642D01*
X025645Y016656D01*
X025658Y016669D01*
X025672Y016679D01*
X025688Y016686D01*
X025705Y016690D01*
X025722Y016692D01*
X025722Y015117D02*
X025872Y015117D01*
X025922Y015067D01*
X027822Y015067D01*
X027872Y015117D01*
X028022Y015117D01*
X028039Y015115D01*
X028056Y015111D01*
X028072Y015104D01*
X028086Y015094D01*
X028099Y015081D01*
X028109Y015067D01*
X028116Y015051D01*
X028120Y015034D01*
X028122Y015017D01*
X028122Y014317D01*
X028120Y014300D01*
X028116Y014283D01*
X028109Y014267D01*
X028099Y014253D01*
X028086Y014240D01*
X028072Y014230D01*
X028056Y014223D01*
X028039Y014219D01*
X028022Y014217D01*
X027872Y014217D01*
X027822Y014267D01*
X025922Y014267D01*
X025872Y014217D01*
X025722Y014217D01*
X025705Y014219D01*
X025688Y014223D01*
X025672Y014230D01*
X025658Y014240D01*
X025645Y014253D01*
X025635Y014267D01*
X025628Y014283D01*
X025624Y014300D01*
X025622Y014317D01*
X025622Y015017D01*
X025624Y015034D01*
X025628Y015051D01*
X025635Y015067D01*
X025645Y015081D01*
X025658Y015094D01*
X025672Y015104D01*
X025688Y015111D01*
X025705Y015115D01*
X025722Y015117D01*
X030366Y015394D02*
X030473Y015287D01*
X030686Y015287D01*
X030793Y015394D01*
X030793Y015608D01*
X030580Y015608D01*
X030793Y015821D02*
X030686Y015928D01*
X030473Y015928D01*
X030366Y015821D01*
X030366Y015394D01*
X031011Y015394D02*
X031118Y015501D01*
X031438Y015501D01*
X031438Y015608D02*
X031438Y015287D01*
X031118Y015287D01*
X031011Y015394D01*
X031331Y015715D02*
X031438Y015608D01*
X031331Y015715D02*
X031118Y015715D01*
X031655Y015715D02*
X031762Y015715D01*
X031869Y015608D01*
X031976Y015715D01*
X032082Y015608D01*
X032082Y015287D01*
X031869Y015287D02*
X031869Y015608D01*
X031655Y015715D02*
X031655Y015287D01*
X032300Y015394D02*
X032300Y015608D01*
X032407Y015715D01*
X032620Y015715D01*
X032727Y015608D01*
X032727Y015501D01*
X032300Y015501D01*
X032300Y015394D02*
X032407Y015287D01*
X032620Y015287D01*
X032766Y016390D02*
X032446Y016390D01*
X032339Y016497D01*
X032339Y016710D01*
X032446Y016817D01*
X032766Y016817D01*
X032984Y016817D02*
X033197Y016817D01*
X033091Y016924D02*
X033091Y016497D01*
X033197Y016390D01*
X033413Y016390D02*
X033627Y016390D01*
X033520Y016390D02*
X033520Y016817D01*
X033413Y016817D01*
X033520Y017030D02*
X033520Y017137D01*
X033735Y017453D02*
X033628Y017560D01*
X034055Y017987D01*
X034055Y017560D01*
X033949Y017453D01*
X033735Y017453D01*
X033628Y017560D02*
X033628Y017987D01*
X033735Y018093D01*
X033949Y018093D01*
X034055Y017987D01*
X033411Y017987D02*
X033411Y017880D01*
X033304Y017773D01*
X033411Y017666D01*
X033411Y017560D01*
X033304Y017453D01*
X033091Y017453D01*
X032984Y017560D01*
X033197Y017773D02*
X033304Y017773D01*
X033411Y017987D02*
X033304Y018093D01*
X033091Y018093D01*
X032984Y017987D01*
X032766Y017773D02*
X032339Y017773D01*
X032660Y018093D01*
X032660Y017453D01*
X032122Y017773D02*
X032015Y017666D01*
X031695Y017666D01*
X031695Y017453D02*
X031695Y018093D01*
X032015Y018093D01*
X032122Y017987D01*
X032122Y017773D01*
X031477Y017666D02*
X031477Y017560D01*
X031370Y017453D01*
X031157Y017453D01*
X031050Y017560D01*
X031157Y017773D02*
X031370Y017773D01*
X031477Y017666D01*
X031157Y017773D02*
X031050Y017880D01*
X031050Y017987D01*
X031157Y018093D01*
X031370Y018093D01*
X031477Y017987D01*
X030833Y018093D02*
X030833Y017453D01*
X030406Y017453D02*
X030406Y018093D01*
X030619Y017880D01*
X030833Y018093D01*
X030816Y018460D02*
X030923Y018567D01*
X030923Y019100D01*
X030603Y019100D01*
X030496Y018994D01*
X030496Y018780D01*
X030603Y018673D01*
X030923Y018673D01*
X031141Y018673D02*
X031354Y018673D01*
X031247Y018673D02*
X031247Y019314D01*
X031141Y019314D01*
X031570Y018673D02*
X031997Y019314D01*
X032215Y019100D02*
X032322Y019100D01*
X032428Y018994D01*
X032535Y019100D01*
X032642Y018994D01*
X032642Y018673D01*
X032428Y018673D02*
X032428Y018994D01*
X032215Y019100D02*
X032215Y018673D01*
X032860Y018673D02*
X032860Y019100D01*
X033180Y019100D01*
X033287Y018994D01*
X033287Y018673D01*
X033504Y018780D02*
X033504Y018994D01*
X033611Y019100D01*
X033931Y019100D01*
X033931Y019314D02*
X033931Y018673D01*
X033611Y018673D01*
X033504Y018780D01*
X034149Y018780D02*
X034149Y018673D01*
X034576Y018673D01*
X034793Y018780D02*
X034900Y018673D01*
X035113Y018673D01*
X035220Y018780D01*
X034793Y018780D02*
X034793Y019207D01*
X034900Y019314D01*
X035113Y019314D01*
X035220Y019207D01*
X034576Y019207D02*
X034149Y018780D01*
X034149Y019314D02*
X034576Y019314D01*
X034576Y019207D01*
X030816Y018460D02*
X030710Y018460D01*
X030281Y018673D02*
X030281Y018780D01*
X030174Y018780D01*
X030174Y018673D01*
X030281Y018673D01*
X029956Y018780D02*
X029956Y018994D01*
X029850Y019100D01*
X029636Y019100D01*
X029529Y018994D01*
X029529Y018780D01*
X029636Y018673D01*
X029850Y018673D01*
X029956Y018780D01*
X029312Y018780D02*
X029312Y018994D01*
X029205Y019100D01*
X028992Y019100D01*
X028885Y018994D01*
X028885Y018780D01*
X028992Y018673D01*
X029205Y018673D01*
X029312Y018780D01*
X028667Y018673D02*
X028347Y018673D01*
X028240Y018780D01*
X028240Y018994D01*
X028347Y019100D01*
X028667Y019100D01*
X028667Y018567D01*
X028561Y018460D01*
X028454Y018460D01*
X030406Y017030D02*
X030726Y017030D01*
X030833Y016924D01*
X030833Y016710D01*
X030726Y016603D01*
X030406Y016603D01*
X030619Y016603D02*
X030833Y016390D01*
X031050Y016497D02*
X031050Y016710D01*
X031157Y016817D01*
X031370Y016817D01*
X031477Y016710D01*
X031477Y016603D01*
X031050Y016603D01*
X031050Y016497D02*
X031157Y016390D01*
X031370Y016390D01*
X031695Y016497D02*
X031801Y016603D01*
X032122Y016603D01*
X032122Y016710D02*
X032015Y016817D01*
X031801Y016817D01*
X031695Y016497D02*
X031801Y016390D01*
X032122Y016390D01*
X032122Y016710D01*
X033843Y016710D02*
X033843Y016497D01*
X033950Y016390D01*
X034163Y016390D01*
X034270Y016497D01*
X034270Y016710D01*
X034163Y016817D01*
X033950Y016817D01*
X033843Y016710D01*
X034488Y016817D02*
X034488Y016390D01*
X034915Y016390D02*
X034915Y016710D01*
X034808Y016817D01*
X034488Y016817D01*
X030406Y017030D02*
X030406Y016390D01*
X021090Y011094D02*
X021090Y010667D01*
X021090Y010880D02*
X020449Y010880D01*
X020106Y010773D02*
X019999Y010667D01*
X019785Y010667D01*
X019679Y010773D01*
X019679Y011094D01*
X019679Y010880D02*
X019465Y010667D01*
X019572Y010449D02*
X019465Y010342D01*
X019465Y010129D01*
X019572Y010022D01*
X019679Y010022D01*
X019785Y010129D01*
X019785Y010342D01*
X019892Y010449D01*
X019999Y010449D01*
X020106Y010342D01*
X020106Y010129D01*
X019999Y010022D01*
X020449Y010022D02*
X020449Y010449D01*
X021090Y010449D01*
X021090Y010022D01*
X020770Y010236D02*
X020770Y010449D01*
X020106Y010773D02*
X020106Y011094D01*
X019465Y011094D01*
X019121Y010987D02*
X019015Y011094D01*
X018588Y011094D01*
X018481Y010987D01*
X018481Y010773D01*
X018588Y010667D01*
X018801Y010667D01*
X018801Y010880D01*
X019015Y010667D02*
X019121Y010773D01*
X019121Y010987D01*
X019121Y010449D02*
X018481Y010449D01*
X018137Y010342D02*
X018030Y010449D01*
X017603Y010449D01*
X017497Y010342D01*
X017497Y010129D01*
X017603Y010022D01*
X018030Y010022D02*
X018137Y010129D01*
X018137Y010342D01*
X018481Y010022D02*
X019121Y010022D01*
X019121Y009805D02*
X018481Y009805D01*
X018481Y009484D01*
X018588Y009377D01*
X019015Y009377D01*
X019121Y009484D01*
X019121Y009805D01*
X019465Y009591D02*
X020106Y009591D01*
X020106Y009805D02*
X020106Y009377D01*
X020449Y009484D02*
X020449Y009698D01*
X020556Y009805D01*
X020770Y009698D02*
X020770Y009484D01*
X020663Y009377D01*
X020556Y009377D01*
X020449Y009484D01*
X020770Y009698D02*
X020876Y009805D01*
X020983Y009805D01*
X021090Y009698D01*
X021090Y009484D01*
X020983Y009377D01*
X021090Y009160D02*
X021090Y008733D01*
X021090Y008946D02*
X020449Y008946D01*
X019121Y010449D02*
X018481Y010022D01*
X018137Y009698D02*
X018030Y009805D01*
X017603Y009805D01*
X017497Y009698D01*
X017497Y009484D01*
X017603Y009377D01*
X018030Y009377D02*
X018137Y009484D01*
X018137Y009698D01*
X018137Y010667D02*
X017710Y010667D01*
X017497Y010880D01*
X017710Y011094D01*
X018137Y011094D01*
D11*
X011360Y015398D02*
X011281Y015319D01*
X011203Y015319D01*
X011124Y015398D01*
X011045Y015319D01*
X010966Y015319D01*
X010888Y015398D01*
X010888Y015555D01*
X010966Y015634D01*
X010966Y015791D02*
X010888Y015869D01*
X010888Y016027D01*
X010966Y016105D01*
X011045Y016262D02*
X011360Y016262D01*
X011281Y016105D02*
X011360Y016027D01*
X011360Y015869D01*
X011281Y015791D01*
X011203Y015791D01*
X011124Y015869D01*
X011045Y015791D01*
X010966Y015791D01*
X011124Y015869D02*
X011124Y015948D01*
X011045Y016262D02*
X010888Y016419D01*
X011045Y016577D01*
X011360Y016577D01*
X011360Y016733D02*
X011281Y016733D01*
X010966Y017048D01*
X010888Y017048D01*
X010888Y017204D02*
X010888Y017519D01*
X010888Y017676D02*
X010888Y017990D01*
X010888Y018147D02*
X010888Y018462D01*
X010888Y018304D02*
X011360Y018304D01*
X011203Y018462D01*
X011203Y017990D02*
X011360Y017833D01*
X010888Y017833D01*
X011203Y017519D02*
X011360Y017362D01*
X010888Y017362D01*
X011360Y017048D02*
X011360Y016733D01*
X011281Y015634D02*
X011360Y015555D01*
X011360Y015398D01*
X011124Y015398D02*
X011124Y015477D01*
D12*
X011027Y011005D02*
X010752Y010730D01*
X011119Y010730D01*
X011304Y010547D02*
X011396Y010455D01*
X011579Y010455D01*
X011671Y010547D01*
X011671Y010638D01*
X011579Y010730D01*
X011488Y010730D01*
X011579Y010730D02*
X011671Y010822D01*
X011671Y010914D01*
X011579Y011005D01*
X011396Y011005D01*
X011304Y010914D01*
X011027Y011005D02*
X011027Y010455D01*
X010566Y010730D02*
X010474Y010638D01*
X010199Y010638D01*
X010199Y010455D02*
X010199Y011005D01*
X010474Y011005D01*
X010566Y010914D01*
X010566Y010730D01*
X010014Y010638D02*
X010014Y010547D01*
X009922Y010455D01*
X009738Y010455D01*
X009647Y010547D01*
X009738Y010730D02*
X009922Y010730D01*
X010014Y010638D01*
X009738Y010730D02*
X009647Y010822D01*
X009647Y010914D01*
X009738Y011005D01*
X009922Y011005D01*
X010014Y010914D01*
X009461Y011005D02*
X009461Y010455D01*
X009094Y010455D02*
X009094Y011005D01*
X009278Y010822D01*
X009461Y011005D01*
X011857Y010914D02*
X011857Y010547D01*
X012224Y010914D01*
X012224Y010547D01*
X012132Y010455D01*
X011948Y010455D01*
X011857Y010547D01*
X012409Y010547D02*
X012501Y010455D01*
X012684Y010455D01*
X012776Y010547D01*
X012776Y010730D01*
X012593Y010730D01*
X012776Y010914D02*
X012684Y011005D01*
X012501Y011005D01*
X012409Y010914D01*
X012409Y010547D01*
X012224Y010914D02*
X012132Y011005D01*
X011948Y011005D01*
X011857Y010914D01*
X012962Y010914D02*
X013053Y011005D01*
X013237Y011005D01*
X013329Y010914D01*
X013329Y010822D01*
X012962Y010455D01*
X013329Y010455D01*
X013514Y010455D02*
X013881Y010822D01*
X013881Y010914D01*
X013789Y011005D01*
X013606Y011005D01*
X013514Y010914D01*
X013514Y010455D02*
X013881Y010455D01*
X014067Y010547D02*
X014158Y010455D01*
X014342Y010455D01*
X014434Y010547D01*
X014434Y010638D01*
X014342Y010730D01*
X014250Y010730D01*
X014342Y010730D02*
X014434Y010822D01*
X014434Y010914D01*
X014342Y011005D01*
X014158Y011005D01*
X014067Y010914D01*
X014619Y010822D02*
X014802Y011005D01*
X014802Y010455D01*
X014619Y010455D02*
X014986Y010455D01*
X024963Y010547D02*
X024963Y010455D01*
X024963Y010547D02*
X025330Y010914D01*
X025330Y011005D01*
X024963Y011005D01*
X025515Y010730D02*
X025882Y010730D01*
X026068Y010730D02*
X026435Y010730D01*
X026620Y010547D02*
X026712Y010455D01*
X026896Y010455D01*
X026987Y010547D01*
X027173Y010547D02*
X027265Y010455D01*
X027448Y010455D01*
X027540Y010547D01*
X027540Y010730D01*
X027448Y010822D01*
X027356Y010822D01*
X027173Y010730D01*
X027173Y011005D01*
X027540Y011005D01*
X027725Y010914D02*
X027725Y010822D01*
X027817Y010730D01*
X028092Y010730D01*
X028092Y010547D02*
X028092Y010914D01*
X028001Y011005D01*
X027817Y011005D01*
X027725Y010914D01*
X027725Y010547D02*
X027817Y010455D01*
X028001Y010455D01*
X028092Y010547D01*
X028278Y010547D02*
X028370Y010455D01*
X028553Y010455D01*
X028645Y010547D01*
X028645Y010730D01*
X028553Y010822D01*
X028461Y010822D01*
X028278Y010730D01*
X028278Y011005D01*
X028645Y011005D01*
X026987Y010914D02*
X026896Y011005D01*
X026712Y011005D01*
X026620Y010914D01*
X026620Y010547D01*
X026435Y010455D02*
X026435Y011005D01*
X026068Y011005D02*
X026068Y010455D01*
X025791Y010455D02*
X025791Y011005D01*
X025515Y010730D01*
D13*
X026525Y014485D02*
X026525Y014849D01*
X026343Y014667D01*
X026586Y014667D01*
X026705Y014546D02*
X026705Y014485D01*
X026705Y014546D02*
X026948Y014788D01*
X026948Y014849D01*
X026705Y014849D01*
X027068Y014849D02*
X027068Y014485D01*
X027068Y014606D02*
X027311Y014849D01*
X027129Y014667D02*
X027311Y014485D01*
X027311Y016060D02*
X027129Y016242D01*
X027068Y016181D02*
X027311Y016424D01*
X027068Y016424D02*
X027068Y016060D01*
X026948Y016121D02*
X026887Y016060D01*
X026766Y016060D01*
X026705Y016121D01*
X026948Y016363D01*
X026948Y016121D01*
X026948Y016363D02*
X026887Y016424D01*
X026766Y016424D01*
X026705Y016363D01*
X026705Y016121D01*
X026586Y016060D02*
X026343Y016060D01*
X026464Y016060D02*
X026464Y016424D01*
X026343Y016303D01*
X026343Y017635D02*
X026586Y017635D01*
X026464Y017635D02*
X026464Y017999D01*
X026343Y017877D01*
X026705Y017938D02*
X026705Y017695D01*
X026948Y017938D01*
X026948Y017695D01*
X026887Y017635D01*
X026766Y017635D01*
X026705Y017695D01*
X026705Y017938D02*
X026766Y017999D01*
X026887Y017999D01*
X026948Y017938D01*
X027068Y017999D02*
X027068Y017635D01*
X027068Y017756D02*
X027311Y017999D01*
X027129Y017817D02*
X027311Y017635D01*
D14*
X019785Y018053D02*
X019785Y019352D01*
X015848Y019352D01*
X015848Y018013D01*
X015848Y015927D02*
X015848Y014549D01*
X016320Y014549D01*
X019313Y014549D02*
X019785Y014549D01*
X019785Y015927D01*
D15*
X019567Y012411D02*
X020067Y012411D01*
X020317Y012161D01*
X020567Y012411D01*
X021067Y012411D01*
X021317Y012161D01*
X021317Y011661D01*
X021067Y011411D01*
X020567Y011411D01*
X020317Y011661D01*
X020067Y011411D01*
X019567Y011411D01*
X019317Y011661D01*
X019067Y011411D01*
X018567Y011411D01*
X018317Y011661D01*
X018067Y011411D01*
X017567Y011411D01*
X017317Y011661D01*
X017317Y012161D01*
X017567Y012411D01*
X018067Y012411D01*
X018317Y012161D01*
X018567Y012411D01*
X019067Y012411D01*
X019317Y012161D01*
X019567Y012411D01*
X019035Y005793D02*
X020535Y005793D01*
X022972Y005793D02*
X024472Y005793D01*
X026909Y005793D02*
X028409Y005793D01*
X030846Y005793D02*
X032346Y005793D01*
X032715Y008743D02*
X034415Y008743D01*
X034765Y009543D02*
X034765Y010335D01*
X032865Y009943D02*
X032867Y009995D01*
X032873Y010047D01*
X032883Y010099D01*
X032896Y010149D01*
X032913Y010199D01*
X032934Y010247D01*
X032959Y010293D01*
X032987Y010337D01*
X033018Y010379D01*
X033052Y010419D01*
X033089Y010456D01*
X033129Y010490D01*
X033171Y010521D01*
X033215Y010549D01*
X033261Y010574D01*
X033309Y010595D01*
X033359Y010612D01*
X033409Y010625D01*
X033461Y010635D01*
X033513Y010641D01*
X033565Y010643D01*
X033617Y010641D01*
X033669Y010635D01*
X033721Y010625D01*
X033771Y010612D01*
X033821Y010595D01*
X033869Y010574D01*
X033915Y010549D01*
X033959Y010521D01*
X034001Y010490D01*
X034041Y010456D01*
X034078Y010419D01*
X034112Y010379D01*
X034143Y010337D01*
X034171Y010293D01*
X034196Y010247D01*
X034217Y010199D01*
X034234Y010149D01*
X034247Y010099D01*
X034257Y010047D01*
X034263Y009995D01*
X034265Y009943D01*
X034263Y009891D01*
X034257Y009839D01*
X034247Y009787D01*
X034234Y009737D01*
X034217Y009687D01*
X034196Y009639D01*
X034171Y009593D01*
X034143Y009549D01*
X034112Y009507D01*
X034078Y009467D01*
X034041Y009430D01*
X034001Y009396D01*
X033959Y009365D01*
X033915Y009337D01*
X033869Y009312D01*
X033821Y009291D01*
X033771Y009274D01*
X033721Y009261D01*
X033669Y009251D01*
X033617Y009245D01*
X033565Y009243D01*
X033513Y009245D01*
X033461Y009251D01*
X033409Y009261D01*
X033359Y009274D01*
X033309Y009291D01*
X033261Y009312D01*
X033215Y009337D01*
X033171Y009365D01*
X033129Y009396D01*
X033089Y009430D01*
X033052Y009467D01*
X033018Y009507D01*
X032987Y009549D01*
X032959Y009593D01*
X032934Y009639D01*
X032913Y009687D01*
X032896Y009737D01*
X032883Y009787D01*
X032873Y009839D01*
X032867Y009891D01*
X032865Y009943D01*
X032365Y009543D02*
X032365Y010347D01*
X032715Y011143D02*
X034415Y011143D01*
X016598Y005793D02*
X015098Y005793D01*
X012661Y005793D02*
X011161Y005793D01*
X008724Y005793D02*
X007224Y005793D01*
X004787Y005793D02*
X003287Y005793D01*
X002919Y008743D02*
X001219Y008743D01*
X000869Y009550D02*
X000869Y010343D01*
X001369Y009943D02*
X001371Y009995D01*
X001377Y010047D01*
X001387Y010099D01*
X001400Y010149D01*
X001417Y010199D01*
X001438Y010247D01*
X001463Y010293D01*
X001491Y010337D01*
X001522Y010379D01*
X001556Y010419D01*
X001593Y010456D01*
X001633Y010490D01*
X001675Y010521D01*
X001719Y010549D01*
X001765Y010574D01*
X001813Y010595D01*
X001863Y010612D01*
X001913Y010625D01*
X001965Y010635D01*
X002017Y010641D01*
X002069Y010643D01*
X002121Y010641D01*
X002173Y010635D01*
X002225Y010625D01*
X002275Y010612D01*
X002325Y010595D01*
X002373Y010574D01*
X002419Y010549D01*
X002463Y010521D01*
X002505Y010490D01*
X002545Y010456D01*
X002582Y010419D01*
X002616Y010379D01*
X002647Y010337D01*
X002675Y010293D01*
X002700Y010247D01*
X002721Y010199D01*
X002738Y010149D01*
X002751Y010099D01*
X002761Y010047D01*
X002767Y009995D01*
X002769Y009943D01*
X002767Y009891D01*
X002761Y009839D01*
X002751Y009787D01*
X002738Y009737D01*
X002721Y009687D01*
X002700Y009639D01*
X002675Y009593D01*
X002647Y009549D01*
X002616Y009507D01*
X002582Y009467D01*
X002545Y009430D01*
X002505Y009396D01*
X002463Y009365D01*
X002419Y009337D01*
X002373Y009312D01*
X002325Y009291D01*
X002275Y009274D01*
X002225Y009261D01*
X002173Y009251D01*
X002121Y009245D01*
X002069Y009243D01*
X002017Y009245D01*
X001965Y009251D01*
X001913Y009261D01*
X001863Y009274D01*
X001813Y009291D01*
X001765Y009312D01*
X001719Y009337D01*
X001675Y009365D01*
X001633Y009396D01*
X001593Y009430D01*
X001556Y009467D01*
X001522Y009507D01*
X001491Y009549D01*
X001463Y009593D01*
X001438Y009639D01*
X001417Y009687D01*
X001400Y009737D01*
X001387Y009787D01*
X001377Y009839D01*
X001371Y009891D01*
X001369Y009943D01*
X001219Y011143D02*
X002919Y011143D01*
X003269Y010343D02*
X003269Y009538D01*
X006293Y009836D02*
X007293Y009836D01*
X007293Y011836D01*
X006293Y011836D01*
X006293Y009836D01*
X006543Y010836D02*
X007043Y010836D01*
X007293Y012576D02*
X006293Y012576D01*
X006293Y014576D01*
X007293Y014576D01*
X007293Y012576D01*
X007043Y013576D02*
X006543Y013576D01*
X005090Y014543D02*
X005090Y019122D01*
X003378Y019122D01*
X003378Y014543D01*
X005090Y014543D01*
X002569Y013842D02*
X002569Y013342D01*
X000789Y013092D02*
X000791Y013163D01*
X000797Y013234D01*
X000807Y013305D01*
X000821Y013374D01*
X000838Y013443D01*
X000860Y013511D01*
X000885Y013578D01*
X000914Y013643D01*
X000946Y013706D01*
X000982Y013768D01*
X001021Y013827D01*
X001064Y013884D01*
X001109Y013939D01*
X001158Y013991D01*
X001209Y014040D01*
X001263Y014086D01*
X001320Y014130D01*
X001378Y014170D01*
X001439Y014206D01*
X001502Y014240D01*
X001567Y014269D01*
X001633Y014295D01*
X001701Y014318D01*
X001769Y014336D01*
X001839Y014351D01*
X001909Y014362D01*
X001980Y014369D01*
X002051Y014372D01*
X002122Y014371D01*
X002193Y014366D01*
X002264Y014357D01*
X002334Y014344D01*
X002403Y014328D01*
X002471Y014307D01*
X002538Y014283D01*
X002604Y014255D01*
X002667Y014223D01*
X002729Y014188D01*
X002789Y014150D01*
X002847Y014108D01*
X002902Y014064D01*
X002955Y014016D01*
X003005Y013965D01*
X003052Y013912D01*
X003096Y013856D01*
X003137Y013798D01*
X003175Y013737D01*
X003209Y013675D01*
X003239Y013610D01*
X003266Y013545D01*
X003290Y013477D01*
X003309Y013409D01*
X003325Y013340D01*
X003337Y013269D01*
X003345Y013199D01*
X003349Y013128D01*
X003349Y013056D01*
X003345Y012985D01*
X003337Y012915D01*
X003325Y012844D01*
X003309Y012775D01*
X003290Y012707D01*
X003266Y012639D01*
X003239Y012574D01*
X003209Y012509D01*
X003175Y012447D01*
X003137Y012386D01*
X003096Y012328D01*
X003052Y012272D01*
X003005Y012219D01*
X002955Y012168D01*
X002902Y012120D01*
X002847Y012076D01*
X002789Y012034D01*
X002729Y011996D01*
X002667Y011961D01*
X002604Y011929D01*
X002538Y011901D01*
X002471Y011877D01*
X002403Y011856D01*
X002334Y011840D01*
X002264Y011827D01*
X002193Y011818D01*
X002122Y011813D01*
X002051Y011812D01*
X001980Y011815D01*
X001909Y011822D01*
X001839Y011833D01*
X001769Y011848D01*
X001701Y011866D01*
X001633Y011889D01*
X001567Y011915D01*
X001502Y011944D01*
X001439Y011978D01*
X001378Y012014D01*
X001320Y012054D01*
X001263Y012098D01*
X001209Y012144D01*
X001158Y012193D01*
X001109Y012245D01*
X001064Y012300D01*
X001021Y012357D01*
X000982Y012416D01*
X000946Y012478D01*
X000914Y012541D01*
X000885Y012606D01*
X000860Y012673D01*
X000838Y012741D01*
X000821Y012810D01*
X000807Y012879D01*
X000797Y012950D01*
X000791Y013021D01*
X000789Y013092D01*
D16*
X003287Y005793D02*
X003233Y005836D01*
X003181Y005882D01*
X003132Y005931D01*
X003085Y005983D01*
X003042Y006037D01*
X003001Y006093D01*
X002964Y006152D01*
X002930Y006212D01*
X002900Y006275D01*
X002873Y006338D01*
X002849Y006404D01*
X002829Y006470D01*
X002813Y006538D01*
X002801Y006606D01*
X002793Y006675D01*
X002788Y006744D01*
X002787Y006814D01*
X002790Y006883D01*
X002797Y006952D01*
X002808Y007020D01*
X002822Y007088D01*
X002841Y007155D01*
X002863Y007221D01*
X002888Y007286D01*
X002917Y007349D01*
X002950Y007410D01*
X002986Y007469D01*
X003025Y007526D01*
X003067Y007582D01*
X003112Y007634D01*
X003160Y007684D01*
X003211Y007731D01*
X003265Y007776D01*
X003320Y007817D01*
X003378Y007855D01*
X003438Y007890D01*
X003500Y007922D01*
X003563Y007950D01*
X003628Y007974D01*
X003694Y007995D01*
X003762Y008012D01*
X003830Y008026D01*
X003899Y008035D01*
X003968Y008041D01*
X004037Y008043D01*
X004106Y008041D01*
X004175Y008035D01*
X004244Y008026D01*
X004312Y008012D01*
X004380Y007995D01*
X004446Y007974D01*
X004511Y007950D01*
X004574Y007922D01*
X004636Y007890D01*
X004696Y007855D01*
X004754Y007817D01*
X004809Y007776D01*
X004863Y007731D01*
X004914Y007684D01*
X004962Y007634D01*
X005007Y007582D01*
X005049Y007526D01*
X005088Y007469D01*
X005124Y007410D01*
X005157Y007349D01*
X005186Y007286D01*
X005211Y007221D01*
X005233Y007155D01*
X005252Y007088D01*
X005266Y007020D01*
X005277Y006952D01*
X005284Y006883D01*
X005287Y006814D01*
X005286Y006744D01*
X005281Y006675D01*
X005273Y006606D01*
X005261Y006538D01*
X005245Y006470D01*
X005225Y006404D01*
X005201Y006338D01*
X005174Y006275D01*
X005144Y006212D01*
X005110Y006152D01*
X005073Y006093D01*
X005032Y006037D01*
X004989Y005983D01*
X004942Y005931D01*
X004893Y005882D01*
X004841Y005836D01*
X004787Y005793D01*
X007224Y005793D02*
X007170Y005836D01*
X007118Y005882D01*
X007069Y005931D01*
X007022Y005983D01*
X006979Y006037D01*
X006938Y006093D01*
X006901Y006152D01*
X006867Y006212D01*
X006837Y006275D01*
X006810Y006338D01*
X006786Y006404D01*
X006766Y006470D01*
X006750Y006538D01*
X006738Y006606D01*
X006730Y006675D01*
X006725Y006744D01*
X006724Y006814D01*
X006727Y006883D01*
X006734Y006952D01*
X006745Y007020D01*
X006759Y007088D01*
X006778Y007155D01*
X006800Y007221D01*
X006825Y007286D01*
X006854Y007349D01*
X006887Y007410D01*
X006923Y007469D01*
X006962Y007526D01*
X007004Y007582D01*
X007049Y007634D01*
X007097Y007684D01*
X007148Y007731D01*
X007202Y007776D01*
X007257Y007817D01*
X007315Y007855D01*
X007375Y007890D01*
X007437Y007922D01*
X007500Y007950D01*
X007565Y007974D01*
X007631Y007995D01*
X007699Y008012D01*
X007767Y008026D01*
X007836Y008035D01*
X007905Y008041D01*
X007974Y008043D01*
X008043Y008041D01*
X008112Y008035D01*
X008181Y008026D01*
X008249Y008012D01*
X008317Y007995D01*
X008383Y007974D01*
X008448Y007950D01*
X008511Y007922D01*
X008573Y007890D01*
X008633Y007855D01*
X008691Y007817D01*
X008746Y007776D01*
X008800Y007731D01*
X008851Y007684D01*
X008899Y007634D01*
X008944Y007582D01*
X008986Y007526D01*
X009025Y007469D01*
X009061Y007410D01*
X009094Y007349D01*
X009123Y007286D01*
X009148Y007221D01*
X009170Y007155D01*
X009189Y007088D01*
X009203Y007020D01*
X009214Y006952D01*
X009221Y006883D01*
X009224Y006814D01*
X009223Y006744D01*
X009218Y006675D01*
X009210Y006606D01*
X009198Y006538D01*
X009182Y006470D01*
X009162Y006404D01*
X009138Y006338D01*
X009111Y006275D01*
X009081Y006212D01*
X009047Y006152D01*
X009010Y006093D01*
X008969Y006037D01*
X008926Y005983D01*
X008879Y005931D01*
X008830Y005882D01*
X008778Y005836D01*
X008724Y005793D01*
X011161Y005793D02*
X011107Y005836D01*
X011055Y005882D01*
X011006Y005931D01*
X010959Y005983D01*
X010916Y006037D01*
X010875Y006093D01*
X010838Y006152D01*
X010804Y006212D01*
X010774Y006275D01*
X010747Y006338D01*
X010723Y006404D01*
X010703Y006470D01*
X010687Y006538D01*
X010675Y006606D01*
X010667Y006675D01*
X010662Y006744D01*
X010661Y006814D01*
X010664Y006883D01*
X010671Y006952D01*
X010682Y007020D01*
X010696Y007088D01*
X010715Y007155D01*
X010737Y007221D01*
X010762Y007286D01*
X010791Y007349D01*
X010824Y007410D01*
X010860Y007469D01*
X010899Y007526D01*
X010941Y007582D01*
X010986Y007634D01*
X011034Y007684D01*
X011085Y007731D01*
X011139Y007776D01*
X011194Y007817D01*
X011252Y007855D01*
X011312Y007890D01*
X011374Y007922D01*
X011437Y007950D01*
X011502Y007974D01*
X011568Y007995D01*
X011636Y008012D01*
X011704Y008026D01*
X011773Y008035D01*
X011842Y008041D01*
X011911Y008043D01*
X011980Y008041D01*
X012049Y008035D01*
X012118Y008026D01*
X012186Y008012D01*
X012254Y007995D01*
X012320Y007974D01*
X012385Y007950D01*
X012448Y007922D01*
X012510Y007890D01*
X012570Y007855D01*
X012628Y007817D01*
X012683Y007776D01*
X012737Y007731D01*
X012788Y007684D01*
X012836Y007634D01*
X012881Y007582D01*
X012923Y007526D01*
X012962Y007469D01*
X012998Y007410D01*
X013031Y007349D01*
X013060Y007286D01*
X013085Y007221D01*
X013107Y007155D01*
X013126Y007088D01*
X013140Y007020D01*
X013151Y006952D01*
X013158Y006883D01*
X013161Y006814D01*
X013160Y006744D01*
X013155Y006675D01*
X013147Y006606D01*
X013135Y006538D01*
X013119Y006470D01*
X013099Y006404D01*
X013075Y006338D01*
X013048Y006275D01*
X013018Y006212D01*
X012984Y006152D01*
X012947Y006093D01*
X012906Y006037D01*
X012863Y005983D01*
X012816Y005931D01*
X012767Y005882D01*
X012715Y005836D01*
X012661Y005793D01*
X015098Y005793D02*
X015044Y005836D01*
X014992Y005882D01*
X014943Y005931D01*
X014896Y005983D01*
X014853Y006037D01*
X014812Y006093D01*
X014775Y006152D01*
X014741Y006212D01*
X014711Y006275D01*
X014684Y006338D01*
X014660Y006404D01*
X014640Y006470D01*
X014624Y006538D01*
X014612Y006606D01*
X014604Y006675D01*
X014599Y006744D01*
X014598Y006814D01*
X014601Y006883D01*
X014608Y006952D01*
X014619Y007020D01*
X014633Y007088D01*
X014652Y007155D01*
X014674Y007221D01*
X014699Y007286D01*
X014728Y007349D01*
X014761Y007410D01*
X014797Y007469D01*
X014836Y007526D01*
X014878Y007582D01*
X014923Y007634D01*
X014971Y007684D01*
X015022Y007731D01*
X015076Y007776D01*
X015131Y007817D01*
X015189Y007855D01*
X015249Y007890D01*
X015311Y007922D01*
X015374Y007950D01*
X015439Y007974D01*
X015505Y007995D01*
X015573Y008012D01*
X015641Y008026D01*
X015710Y008035D01*
X015779Y008041D01*
X015848Y008043D01*
X015917Y008041D01*
X015986Y008035D01*
X016055Y008026D01*
X016123Y008012D01*
X016191Y007995D01*
X016257Y007974D01*
X016322Y007950D01*
X016385Y007922D01*
X016447Y007890D01*
X016507Y007855D01*
X016565Y007817D01*
X016620Y007776D01*
X016674Y007731D01*
X016725Y007684D01*
X016773Y007634D01*
X016818Y007582D01*
X016860Y007526D01*
X016899Y007469D01*
X016935Y007410D01*
X016968Y007349D01*
X016997Y007286D01*
X017022Y007221D01*
X017044Y007155D01*
X017063Y007088D01*
X017077Y007020D01*
X017088Y006952D01*
X017095Y006883D01*
X017098Y006814D01*
X017097Y006744D01*
X017092Y006675D01*
X017084Y006606D01*
X017072Y006538D01*
X017056Y006470D01*
X017036Y006404D01*
X017012Y006338D01*
X016985Y006275D01*
X016955Y006212D01*
X016921Y006152D01*
X016884Y006093D01*
X016843Y006037D01*
X016800Y005983D01*
X016753Y005931D01*
X016704Y005882D01*
X016652Y005836D01*
X016598Y005793D01*
X019035Y005793D02*
X018981Y005836D01*
X018929Y005882D01*
X018880Y005931D01*
X018833Y005983D01*
X018790Y006037D01*
X018749Y006093D01*
X018712Y006152D01*
X018678Y006212D01*
X018648Y006275D01*
X018621Y006338D01*
X018597Y006404D01*
X018577Y006470D01*
X018561Y006538D01*
X018549Y006606D01*
X018541Y006675D01*
X018536Y006744D01*
X018535Y006814D01*
X018538Y006883D01*
X018545Y006952D01*
X018556Y007020D01*
X018570Y007088D01*
X018589Y007155D01*
X018611Y007221D01*
X018636Y007286D01*
X018665Y007349D01*
X018698Y007410D01*
X018734Y007469D01*
X018773Y007526D01*
X018815Y007582D01*
X018860Y007634D01*
X018908Y007684D01*
X018959Y007731D01*
X019013Y007776D01*
X019068Y007817D01*
X019126Y007855D01*
X019186Y007890D01*
X019248Y007922D01*
X019311Y007950D01*
X019376Y007974D01*
X019442Y007995D01*
X019510Y008012D01*
X019578Y008026D01*
X019647Y008035D01*
X019716Y008041D01*
X019785Y008043D01*
X019854Y008041D01*
X019923Y008035D01*
X019992Y008026D01*
X020060Y008012D01*
X020128Y007995D01*
X020194Y007974D01*
X020259Y007950D01*
X020322Y007922D01*
X020384Y007890D01*
X020444Y007855D01*
X020502Y007817D01*
X020557Y007776D01*
X020611Y007731D01*
X020662Y007684D01*
X020710Y007634D01*
X020755Y007582D01*
X020797Y007526D01*
X020836Y007469D01*
X020872Y007410D01*
X020905Y007349D01*
X020934Y007286D01*
X020959Y007221D01*
X020981Y007155D01*
X021000Y007088D01*
X021014Y007020D01*
X021025Y006952D01*
X021032Y006883D01*
X021035Y006814D01*
X021034Y006744D01*
X021029Y006675D01*
X021021Y006606D01*
X021009Y006538D01*
X020993Y006470D01*
X020973Y006404D01*
X020949Y006338D01*
X020922Y006275D01*
X020892Y006212D01*
X020858Y006152D01*
X020821Y006093D01*
X020780Y006037D01*
X020737Y005983D01*
X020690Y005931D01*
X020641Y005882D01*
X020589Y005836D01*
X020535Y005793D01*
X022972Y005793D02*
X022918Y005836D01*
X022866Y005882D01*
X022817Y005931D01*
X022770Y005983D01*
X022727Y006037D01*
X022686Y006093D01*
X022649Y006152D01*
X022615Y006212D01*
X022585Y006275D01*
X022558Y006338D01*
X022534Y006404D01*
X022514Y006470D01*
X022498Y006538D01*
X022486Y006606D01*
X022478Y006675D01*
X022473Y006744D01*
X022472Y006814D01*
X022475Y006883D01*
X022482Y006952D01*
X022493Y007020D01*
X022507Y007088D01*
X022526Y007155D01*
X022548Y007221D01*
X022573Y007286D01*
X022602Y007349D01*
X022635Y007410D01*
X022671Y007469D01*
X022710Y007526D01*
X022752Y007582D01*
X022797Y007634D01*
X022845Y007684D01*
X022896Y007731D01*
X022950Y007776D01*
X023005Y007817D01*
X023063Y007855D01*
X023123Y007890D01*
X023185Y007922D01*
X023248Y007950D01*
X023313Y007974D01*
X023379Y007995D01*
X023447Y008012D01*
X023515Y008026D01*
X023584Y008035D01*
X023653Y008041D01*
X023722Y008043D01*
X023791Y008041D01*
X023860Y008035D01*
X023929Y008026D01*
X023997Y008012D01*
X024065Y007995D01*
X024131Y007974D01*
X024196Y007950D01*
X024259Y007922D01*
X024321Y007890D01*
X024381Y007855D01*
X024439Y007817D01*
X024494Y007776D01*
X024548Y007731D01*
X024599Y007684D01*
X024647Y007634D01*
X024692Y007582D01*
X024734Y007526D01*
X024773Y007469D01*
X024809Y007410D01*
X024842Y007349D01*
X024871Y007286D01*
X024896Y007221D01*
X024918Y007155D01*
X024937Y007088D01*
X024951Y007020D01*
X024962Y006952D01*
X024969Y006883D01*
X024972Y006814D01*
X024971Y006744D01*
X024966Y006675D01*
X024958Y006606D01*
X024946Y006538D01*
X024930Y006470D01*
X024910Y006404D01*
X024886Y006338D01*
X024859Y006275D01*
X024829Y006212D01*
X024795Y006152D01*
X024758Y006093D01*
X024717Y006037D01*
X024674Y005983D01*
X024627Y005931D01*
X024578Y005882D01*
X024526Y005836D01*
X024472Y005793D01*
X026909Y005793D02*
X026855Y005836D01*
X026803Y005882D01*
X026754Y005931D01*
X026707Y005983D01*
X026664Y006037D01*
X026623Y006093D01*
X026586Y006152D01*
X026552Y006212D01*
X026522Y006275D01*
X026495Y006338D01*
X026471Y006404D01*
X026451Y006470D01*
X026435Y006538D01*
X026423Y006606D01*
X026415Y006675D01*
X026410Y006744D01*
X026409Y006814D01*
X026412Y006883D01*
X026419Y006952D01*
X026430Y007020D01*
X026444Y007088D01*
X026463Y007155D01*
X026485Y007221D01*
X026510Y007286D01*
X026539Y007349D01*
X026572Y007410D01*
X026608Y007469D01*
X026647Y007526D01*
X026689Y007582D01*
X026734Y007634D01*
X026782Y007684D01*
X026833Y007731D01*
X026887Y007776D01*
X026942Y007817D01*
X027000Y007855D01*
X027060Y007890D01*
X027122Y007922D01*
X027185Y007950D01*
X027250Y007974D01*
X027316Y007995D01*
X027384Y008012D01*
X027452Y008026D01*
X027521Y008035D01*
X027590Y008041D01*
X027659Y008043D01*
X027728Y008041D01*
X027797Y008035D01*
X027866Y008026D01*
X027934Y008012D01*
X028002Y007995D01*
X028068Y007974D01*
X028133Y007950D01*
X028196Y007922D01*
X028258Y007890D01*
X028318Y007855D01*
X028376Y007817D01*
X028431Y007776D01*
X028485Y007731D01*
X028536Y007684D01*
X028584Y007634D01*
X028629Y007582D01*
X028671Y007526D01*
X028710Y007469D01*
X028746Y007410D01*
X028779Y007349D01*
X028808Y007286D01*
X028833Y007221D01*
X028855Y007155D01*
X028874Y007088D01*
X028888Y007020D01*
X028899Y006952D01*
X028906Y006883D01*
X028909Y006814D01*
X028908Y006744D01*
X028903Y006675D01*
X028895Y006606D01*
X028883Y006538D01*
X028867Y006470D01*
X028847Y006404D01*
X028823Y006338D01*
X028796Y006275D01*
X028766Y006212D01*
X028732Y006152D01*
X028695Y006093D01*
X028654Y006037D01*
X028611Y005983D01*
X028564Y005931D01*
X028515Y005882D01*
X028463Y005836D01*
X028409Y005793D01*
X030846Y005793D02*
X030792Y005836D01*
X030740Y005882D01*
X030691Y005931D01*
X030644Y005983D01*
X030601Y006037D01*
X030560Y006093D01*
X030523Y006152D01*
X030489Y006212D01*
X030459Y006275D01*
X030432Y006338D01*
X030408Y006404D01*
X030388Y006470D01*
X030372Y006538D01*
X030360Y006606D01*
X030352Y006675D01*
X030347Y006744D01*
X030346Y006814D01*
X030349Y006883D01*
X030356Y006952D01*
X030367Y007020D01*
X030381Y007088D01*
X030400Y007155D01*
X030422Y007221D01*
X030447Y007286D01*
X030476Y007349D01*
X030509Y007410D01*
X030545Y007469D01*
X030584Y007526D01*
X030626Y007582D01*
X030671Y007634D01*
X030719Y007684D01*
X030770Y007731D01*
X030824Y007776D01*
X030879Y007817D01*
X030937Y007855D01*
X030997Y007890D01*
X031059Y007922D01*
X031122Y007950D01*
X031187Y007974D01*
X031253Y007995D01*
X031321Y008012D01*
X031389Y008026D01*
X031458Y008035D01*
X031527Y008041D01*
X031596Y008043D01*
X031665Y008041D01*
X031734Y008035D01*
X031803Y008026D01*
X031871Y008012D01*
X031939Y007995D01*
X032005Y007974D01*
X032070Y007950D01*
X032133Y007922D01*
X032195Y007890D01*
X032255Y007855D01*
X032313Y007817D01*
X032368Y007776D01*
X032422Y007731D01*
X032473Y007684D01*
X032521Y007634D01*
X032566Y007582D01*
X032608Y007526D01*
X032647Y007469D01*
X032683Y007410D01*
X032716Y007349D01*
X032745Y007286D01*
X032770Y007221D01*
X032792Y007155D01*
X032811Y007088D01*
X032825Y007020D01*
X032836Y006952D01*
X032843Y006883D01*
X032846Y006814D01*
X032845Y006744D01*
X032840Y006675D01*
X032832Y006606D01*
X032820Y006538D01*
X032804Y006470D01*
X032784Y006404D01*
X032760Y006338D01*
X032733Y006275D01*
X032703Y006212D01*
X032669Y006152D01*
X032632Y006093D01*
X032591Y006037D01*
X032548Y005983D01*
X032501Y005931D01*
X032452Y005882D01*
X032400Y005836D01*
X032346Y005793D01*
D17*
X031596Y004276D03*
X027659Y004276D03*
X023722Y004276D03*
X019785Y004276D03*
X015848Y004276D03*
X011911Y004276D03*
X007974Y004276D03*
X004037Y004276D03*
X004037Y001436D03*
X007974Y001436D03*
X011911Y001436D03*
X015848Y001436D03*
X019785Y001436D03*
X023722Y001436D03*
X027659Y001436D03*
X031596Y001436D03*
D18*
X028292Y014667D03*
X028292Y016242D03*
X028292Y017817D03*
X025452Y017817D03*
X025452Y016242D03*
X025452Y014667D03*
D19*
X012549Y015032D02*
X012549Y018632D01*
X009299Y018632D01*
X009299Y015032D01*
X012549Y015032D01*
D20*
X008874Y015832D03*
X008874Y016832D03*
X008874Y017832D03*
D21*
X022872Y011880D02*
X022872Y011130D01*
X022911Y011128D01*
X022950Y011122D01*
X022988Y011113D01*
X023025Y011100D01*
X023061Y011083D01*
X023094Y011063D01*
X023126Y011039D01*
X023155Y011013D01*
X023181Y010984D01*
X023205Y010952D01*
X023225Y010919D01*
X023242Y010883D01*
X023255Y010846D01*
X023264Y010808D01*
X023270Y010769D01*
X023272Y010730D01*
X023270Y010691D01*
X023264Y010652D01*
X023255Y010614D01*
X023242Y010577D01*
X023225Y010541D01*
X023205Y010508D01*
X023181Y010476D01*
X023155Y010447D01*
X023126Y010421D01*
X023094Y010397D01*
X023061Y010377D01*
X023025Y010360D01*
X022988Y010347D01*
X022950Y010338D01*
X022911Y010332D01*
X022872Y010330D01*
X022872Y009580D01*
X030872Y009580D01*
X030872Y011880D01*
X022872Y011880D01*
M02*
