G75*
G70*
%OFA0B0*%
%FSLAX24Y24*%
%IPPOS*%
%LPD*%
%AMOC8*
5,1,8,0,0,1.08239X$1,22.5*
%
%ADD10C,0.0520*%
%ADD11OC8,0.0520*%
%ADD12R,0.0740X0.0740*%
%ADD13OC8,0.1181*%
%ADD14C,0.0740*%
%ADD15C,0.0650*%
%ADD16C,0.0600*%
%ADD17C,0.0740*%
%ADD18R,0.0650X0.0650*%
%ADD19C,0.0100*%
%ADD20C,0.0080*%
%ADD21C,0.0240*%
D10*
X008909Y008970D02*
X008909Y009490D01*
X009909Y009490D02*
X009909Y008970D01*
X010909Y008970D02*
X010909Y009490D01*
X011909Y009490D02*
X011909Y008970D01*
X012909Y008970D02*
X012909Y009490D01*
X013909Y009490D02*
X013909Y008970D01*
X014909Y008970D02*
X014909Y009490D01*
X014909Y011970D02*
X014909Y012490D01*
X013909Y012490D02*
X013909Y011970D01*
X012909Y011970D02*
X012909Y012490D01*
X011909Y012490D02*
X011909Y011970D01*
X010909Y011970D02*
X010909Y012490D01*
X009909Y012490D02*
X009909Y011970D01*
X008909Y011970D02*
X008909Y012490D01*
X023372Y012490D02*
X023372Y011970D01*
X024372Y011970D02*
X024372Y012490D01*
X025372Y012490D02*
X025372Y011970D01*
X026372Y011970D02*
X026372Y012490D01*
X027372Y012490D02*
X027372Y011970D01*
X028372Y011970D02*
X028372Y012490D01*
X029372Y012490D02*
X029372Y011970D01*
X030372Y011970D02*
X030372Y012490D01*
X030372Y009490D02*
X030372Y008970D01*
X029372Y008970D02*
X029372Y009490D01*
X028372Y009490D02*
X028372Y008970D01*
X027372Y008970D02*
X027372Y009490D01*
X026372Y009490D02*
X026372Y008970D01*
X025372Y008970D02*
X025372Y009490D01*
X024372Y009490D02*
X024372Y008970D01*
X023372Y008970D02*
X023372Y009490D01*
D11*
X004037Y000856D03*
X007974Y000856D03*
X011911Y000856D03*
X015848Y000856D03*
X019785Y000856D03*
X023722Y000856D03*
X027659Y000856D03*
X031596Y000856D03*
X031596Y004856D03*
X031596Y006293D03*
X031596Y007293D03*
X027659Y007293D03*
X027659Y006293D03*
X027659Y004856D03*
X023722Y004856D03*
X023722Y006293D03*
X023722Y007293D03*
X019785Y007293D03*
X019785Y006293D03*
X019785Y004856D03*
X015848Y004856D03*
X015848Y006293D03*
X015848Y007293D03*
X011911Y007293D03*
X011911Y006293D03*
X011911Y004856D03*
X007974Y004856D03*
X007974Y006293D03*
X007974Y007293D03*
X004037Y007293D03*
X004037Y006293D03*
X004037Y004856D03*
X024872Y014667D03*
X024872Y016242D03*
X024872Y017817D03*
X028872Y017817D03*
X028872Y016242D03*
X028872Y014667D03*
D12*
X018801Y014470D03*
X017817Y014470D03*
X016832Y014470D03*
X017817Y011961D03*
D13*
X019549Y017226D03*
X016084Y017226D03*
D14*
X019817Y011961D03*
X020817Y011861D03*
X018817Y011861D03*
X032285Y010833D03*
X034845Y010833D03*
X034845Y009053D03*
X032285Y009053D03*
X004234Y015762D03*
X004234Y016832D03*
X004234Y017902D03*
X003349Y010833D03*
X000789Y010833D03*
X000789Y009053D03*
X003349Y009053D03*
D15*
X006793Y010336D03*
X006793Y011336D03*
X006793Y013076D03*
X006793Y014076D03*
X002069Y013592D03*
D16*
X007749Y015832D02*
X008349Y015832D01*
X008349Y016832D02*
X007749Y016832D01*
X007749Y017832D02*
X008349Y017832D01*
D17*
X002045Y017832D02*
X001305Y017832D01*
X001305Y016832D02*
X002045Y016832D01*
D18*
X002069Y012592D03*
D19*
X006006Y007187D02*
X009155Y010336D01*
X022541Y010336D01*
X024116Y011911D01*
X024372Y012230D01*
X024903Y011911D02*
X024903Y012698D01*
X025297Y013092D01*
X026478Y013092D01*
X027265Y012305D01*
X027372Y012230D01*
X026478Y011911D02*
X026372Y012230D01*
X026478Y011911D02*
X028446Y009943D01*
X030021Y009943D01*
X030415Y009549D01*
X030372Y009230D01*
X030021Y008368D02*
X029234Y009155D01*
X029372Y009230D01*
X030021Y008368D02*
X030415Y008368D01*
X031596Y007187D01*
X031596Y007293D01*
X032285Y010833D02*
X032383Y011124D01*
X032383Y011911D01*
X028446Y015848D01*
X026478Y017817D01*
X024903Y017817D01*
X024872Y017817D01*
X024903Y014667D02*
X024872Y014667D01*
X024903Y014667D02*
X022935Y014667D01*
X020179Y011911D01*
X019817Y011961D01*
X019785Y011911D01*
X018998Y011124D01*
X013880Y011124D01*
X013092Y011911D01*
X012909Y012230D01*
X011909Y012230D02*
X011911Y011911D01*
X013092Y010730D01*
X019391Y010730D01*
X020572Y011911D01*
X020817Y011861D01*
X022541Y009549D02*
X024903Y011911D01*
X022541Y009549D02*
X015061Y009549D01*
X014909Y009230D01*
X012305Y008368D02*
X019785Y008368D01*
X020572Y009155D01*
X023328Y009155D01*
X023372Y009230D01*
X024509Y008368D02*
X025297Y009155D01*
X025372Y009230D01*
X024509Y008368D02*
X020179Y008368D01*
X018998Y007187D01*
X015848Y007187D01*
X015848Y007293D01*
X012305Y008368D02*
X011124Y007187D01*
X007974Y007187D01*
X007974Y007293D01*
X006006Y007187D02*
X004037Y007187D01*
X004037Y007293D01*
D20*
X003643Y007974D02*
X006793Y011124D01*
X006793Y011336D01*
X007580Y011124D02*
X007580Y013092D01*
X008761Y014273D01*
X008761Y016242D01*
X008368Y016635D01*
X008049Y016832D01*
X007974Y017817D02*
X006793Y016635D01*
X006793Y016242D01*
X004037Y016242D01*
X002462Y017817D01*
X001675Y017817D01*
X001675Y017832D01*
X006793Y016242D02*
X006793Y014076D01*
X006793Y013092D02*
X007974Y014273D01*
X007974Y015848D01*
X008049Y015832D01*
X007974Y017817D02*
X008049Y017832D01*
X015061Y013880D02*
X017029Y015848D01*
X028446Y015848D01*
X028446Y015848D01*
X028840Y016242D02*
X028872Y016242D01*
X028840Y016242D02*
X032777Y012305D01*
X032777Y010336D01*
X031990Y009549D01*
X030415Y009549D01*
X030372Y009230D01*
X024903Y016242D02*
X024872Y016242D01*
X018801Y014470D02*
X017817Y013486D01*
X017817Y011961D01*
X017817Y014273D02*
X015061Y011517D01*
X014667Y011517D01*
X014909Y012230D02*
X015061Y012305D01*
X015061Y013880D01*
X013880Y013092D02*
X013880Y012305D01*
X013909Y012230D01*
X013880Y013092D02*
X017029Y016242D01*
X017817Y014470D02*
X017817Y014273D01*
X007580Y013092D02*
X005218Y010730D01*
X003643Y010730D01*
X003349Y010833D01*
X006793Y010336D02*
X007580Y011124D01*
X006793Y013076D02*
X006793Y013092D01*
X003643Y007974D02*
X003643Y004431D01*
X004037Y004037D01*
X004037Y000856D01*
D21*
X014667Y011517D03*
X017029Y016242D03*
M02*
