G75*
G70*
%OFA0B0*%
%FSLAX24Y24*%
%IPPOS*%
%LPD*%
%AMOC8*
5,1,8,0,0,1.08239X$1,22.5*
%
%ADD10C,0.0560*%
%ADD11OC8,0.0560*%
%ADD12R,0.0780X0.0780*%
%ADD13OC8,0.1221*%
%ADD14C,0.0780*%
%ADD15C,0.0690*%
%ADD16C,0.0640*%
%ADD17C,0.0780*%
%ADD18C,0.0050*%
%ADD19R,0.0690X0.0690*%
D10*
X008909Y008970D02*
X008909Y009490D01*
X009909Y009490D02*
X009909Y008970D01*
X010909Y008970D02*
X010909Y009490D01*
X011909Y009490D02*
X011909Y008970D01*
X012909Y008970D02*
X012909Y009490D01*
X013909Y009490D02*
X013909Y008970D01*
X014909Y008970D02*
X014909Y009490D01*
X014909Y011970D02*
X014909Y012490D01*
X013909Y012490D02*
X013909Y011970D01*
X012909Y011970D02*
X012909Y012490D01*
X011909Y012490D02*
X011909Y011970D01*
X010909Y011970D02*
X010909Y012490D01*
X009909Y012490D02*
X009909Y011970D01*
X008909Y011970D02*
X008909Y012490D01*
X023372Y012490D02*
X023372Y011970D01*
X024372Y011970D02*
X024372Y012490D01*
X025372Y012490D02*
X025372Y011970D01*
X026372Y011970D02*
X026372Y012490D01*
X027372Y012490D02*
X027372Y011970D01*
X028372Y011970D02*
X028372Y012490D01*
X029372Y012490D02*
X029372Y011970D01*
X030372Y011970D02*
X030372Y012490D01*
X030372Y009490D02*
X030372Y008970D01*
X029372Y008970D02*
X029372Y009490D01*
X028372Y009490D02*
X028372Y008970D01*
X027372Y008970D02*
X027372Y009490D01*
X026372Y009490D02*
X026372Y008970D01*
X025372Y008970D02*
X025372Y009490D01*
X024372Y009490D02*
X024372Y008970D01*
X023372Y008970D02*
X023372Y009490D01*
D11*
X004037Y000856D03*
X007974Y000856D03*
X011911Y000856D03*
X015848Y000856D03*
X019785Y000856D03*
X023722Y000856D03*
X027659Y000856D03*
X031596Y000856D03*
X031596Y004856D03*
X031596Y006293D03*
X031596Y007293D03*
X027659Y007293D03*
X027659Y006293D03*
X027659Y004856D03*
X023722Y004856D03*
X023722Y006293D03*
X023722Y007293D03*
X019785Y007293D03*
X019785Y006293D03*
X019785Y004856D03*
X015848Y004856D03*
X015848Y006293D03*
X015848Y007293D03*
X011911Y007293D03*
X011911Y006293D03*
X011911Y004856D03*
X007974Y004856D03*
X007974Y006293D03*
X007974Y007293D03*
X004037Y007293D03*
X004037Y006293D03*
X004037Y004856D03*
X024872Y014667D03*
X024872Y016242D03*
X024872Y017817D03*
X028872Y017817D03*
X028872Y016242D03*
X028872Y014667D03*
D12*
X018801Y014470D03*
X017817Y014470D03*
X016832Y014470D03*
X017817Y011961D03*
D13*
X019549Y017226D03*
X016084Y017226D03*
D14*
X019817Y011961D03*
X020817Y011861D03*
X018817Y011861D03*
X032285Y010833D03*
X034845Y010833D03*
X034845Y009053D03*
X032285Y009053D03*
X003349Y009053D03*
X000789Y009053D03*
X000789Y010833D03*
X003349Y010833D03*
D15*
X006793Y010336D03*
X006793Y011336D03*
X006793Y013076D03*
X006793Y014076D03*
X002069Y013592D03*
D16*
X007749Y015832D02*
X008349Y015832D01*
X008349Y016832D02*
X007749Y016832D01*
X007749Y017832D02*
X008349Y017832D01*
D17*
X002045Y017832D02*
X001305Y017832D01*
X001305Y016832D02*
X002045Y016832D01*
D18*
X003889Y016824D02*
X003895Y016893D01*
X003915Y016959D01*
X003947Y017020D01*
X003991Y017074D01*
X004044Y017118D01*
X004105Y017151D01*
X004171Y017171D01*
X004240Y017178D01*
X004307Y017171D01*
X004371Y017150D01*
X004430Y017117D01*
X004481Y017074D01*
X004523Y017021D01*
X004554Y016961D01*
X004572Y016896D01*
X004578Y016829D01*
X004571Y016762D01*
X004550Y016698D01*
X004518Y016638D01*
X004475Y016587D01*
X004422Y016544D01*
X004362Y016513D01*
X004297Y016494D01*
X004230Y016488D01*
X004164Y016494D01*
X004100Y016513D01*
X004041Y016544D01*
X003990Y016586D01*
X003947Y016637D01*
X003916Y016695D01*
X003896Y016758D01*
X003889Y016824D01*
X003890Y016833D02*
X004578Y016833D01*
X004574Y016881D02*
X003894Y016881D01*
X003906Y016930D02*
X004563Y016930D01*
X004545Y016978D02*
X003925Y016978D01*
X003952Y017027D02*
X004519Y017027D01*
X004480Y017075D02*
X003992Y017075D01*
X004054Y017124D02*
X004419Y017124D01*
X004294Y017172D02*
X004179Y017172D01*
X004227Y017557D02*
X004294Y017562D01*
X004359Y017581D01*
X004419Y017611D01*
X004472Y017653D01*
X004516Y017704D01*
X004549Y017763D01*
X004570Y017827D01*
X004578Y017894D01*
X004572Y017962D01*
X004553Y018028D01*
X004521Y018089D01*
X004478Y018142D01*
X003988Y018142D01*
X003987Y018142D02*
X004040Y018186D01*
X004100Y018218D01*
X004165Y018239D01*
X004233Y018246D01*
X004301Y018239D01*
X004366Y018218D01*
X004426Y018186D01*
X004478Y018142D01*
X004517Y018094D02*
X003949Y018094D01*
X003945Y018088D02*
X003987Y018142D01*
X003945Y018088D02*
X003913Y018028D01*
X003894Y017962D01*
X003888Y017894D01*
X003895Y017828D01*
X003914Y017765D01*
X003945Y017707D01*
X003988Y017656D01*
X004039Y017614D01*
X004097Y017583D01*
X004161Y017564D01*
X004227Y017557D01*
X004197Y017560D02*
X004263Y017560D01*
X004414Y017609D02*
X004048Y017609D01*
X003986Y017657D02*
X004476Y017657D01*
X004517Y017706D02*
X003946Y017706D01*
X003920Y017754D02*
X004544Y017754D01*
X004562Y017803D02*
X003902Y017803D01*
X003892Y017851D02*
X004573Y017851D01*
X004577Y017900D02*
X003888Y017900D01*
X003893Y017948D02*
X004573Y017948D01*
X004562Y017997D02*
X003904Y017997D01*
X003922Y018045D02*
X004544Y018045D01*
X004417Y018191D02*
X004049Y018191D01*
X004167Y018239D02*
X004299Y018239D01*
X004573Y016784D02*
X003893Y016784D01*
X003903Y016736D02*
X004562Y016736D01*
X004545Y016687D02*
X003920Y016687D01*
X003946Y016639D02*
X004518Y016639D01*
X004477Y016590D02*
X003986Y016590D01*
X004046Y016542D02*
X004417Y016542D01*
X004285Y016493D02*
X004177Y016493D01*
X004199Y016105D02*
X004274Y016105D01*
X004307Y016101D02*
X004239Y016109D01*
X004170Y016102D01*
X004104Y016081D01*
X004043Y016048D01*
X003989Y016004D01*
X003946Y015950D01*
X003914Y015888D01*
X003894Y015821D01*
X003888Y015752D01*
X003895Y015686D01*
X003915Y015623D01*
X003947Y015564D01*
X003990Y015513D01*
X004042Y015471D01*
X004101Y015441D01*
X004165Y015422D01*
X004232Y015416D01*
X004299Y015422D01*
X004363Y015440D01*
X004423Y015470D01*
X004476Y015512D01*
X004520Y015563D01*
X004552Y015622D01*
X004573Y015686D01*
X004581Y015752D01*
X004576Y015821D01*
X004557Y015887D01*
X004526Y015948D01*
X004484Y016002D01*
X004432Y016046D01*
X004372Y016080D01*
X004307Y016101D01*
X004413Y016057D02*
X004058Y016057D01*
X003995Y016008D02*
X004476Y016008D01*
X004517Y015960D02*
X003954Y015960D01*
X003926Y015911D02*
X004545Y015911D01*
X004564Y015863D02*
X003906Y015863D01*
X003893Y015814D02*
X004576Y015814D01*
X004580Y015766D02*
X003889Y015766D01*
X003892Y015717D02*
X004577Y015717D01*
X004568Y015669D02*
X003901Y015669D01*
X003917Y015620D02*
X004551Y015620D01*
X004524Y015572D02*
X003943Y015572D01*
X003982Y015523D02*
X004485Y015523D01*
X004429Y015475D02*
X004038Y015475D01*
X004151Y015426D02*
X004315Y015426D01*
D19*
X002069Y012592D03*
M02*
